<svg xmlns="http://www.w3.org/2000/svg" viewBox="0 0 1123 794" font-family="Helvetica, Arial, sans-serif"><rect x="0" y="0" width="1123" height="794" fill="#ffffff"/><text x="40" y="54" font-weight="bold" font-family="'Lato', Helvetica, Arial, sans-serif" letter-spacing="0.04em" font-size="22" fill="#111111">BAUABLAUFPLAN — ERSATZNEUBAU ZÜRICH-ALTSTETTEN</text><text x="40" y="78" font-family="'IBM Plex Mono', ui-monospace, monospace" font-size="12.5" font-feature-settings="'tnum'" fill="#444444">Ausführungsprojekt/Ausführung (SIA 51/52) · 08.07.2026 · Gesamtdauer: 8 Wochen</text><line x1="40" y1="90" x2="1083" y2="90" stroke="#bbbbbb" stroke-width="1"/><rect x="40" y="100" width="1043" height="32" fill="#f6f2e6" stroke="#c9bfa0" stroke-width="1"/><text x="54" y="120" font-size="12.5" font-weight="bold" fill="#111111">Abgeleiteter Grob-Terminplan, ersetzt keine Bauleitung.</text><line x1="230.00" y1="154" x2="230.00" y2="390.00" stroke="#e2e2e2" stroke-width="1"/><text x="230.00" y="168.00" font-family="'IBM Plex Mono', ui-monospace, monospace" font-size="9" font-feature-settings="'tnum'" text-anchor="middle" fill="#888888">0</text><line x1="336.63" y1="154" x2="336.63" y2="390.00" stroke="#e2e2e2" stroke-width="1"/><text x="336.63" y="168.00" font-family="'IBM Plex Mono', ui-monospace, monospace" font-size="9" font-feature-settings="'tnum'" text-anchor="middle" fill="#888888">1</text><line x1="443.25" y1="154" x2="443.25" y2="390.00" stroke="#e2e2e2" stroke-width="1"/><text x="443.25" y="168.00" font-family="'IBM Plex Mono', ui-monospace, monospace" font-size="9" font-feature-settings="'tnum'" text-anchor="middle" fill="#888888">2</text><line x1="549.88" y1="154" x2="549.88" y2="390.00" stroke="#e2e2e2" stroke-width="1"/><text x="549.88" y="168.00" font-family="'IBM Plex Mono', ui-monospace, monospace" font-size="9" font-feature-settings="'tnum'" text-anchor="middle" fill="#888888">3</text><line x1="656.50" y1="154" x2="656.50" y2="390.00" stroke="#e2e2e2" stroke-width="1"/><text x="656.50" y="168.00" font-family="'IBM Plex Mono', ui-monospace, monospace" font-size="9" font-feature-settings="'tnum'" text-anchor="middle" fill="#888888">4</text><line x1="763.13" y1="154" x2="763.13" y2="390.00" stroke="#e2e2e2" stroke-width="1"/><text x="763.13" y="168.00" font-family="'IBM Plex Mono', ui-monospace, monospace" font-size="9" font-feature-settings="'tnum'" text-anchor="middle" fill="#888888">5</text><line x1="869.75" y1="154" x2="869.75" y2="390.00" stroke="#e2e2e2" stroke-width="1"/><text x="869.75" y="168.00" font-family="'IBM Plex Mono', ui-monospace, monospace" font-size="9" font-feature-settings="'tnum'" text-anchor="middle" fill="#888888">6</text><line x1="976.38" y1="154" x2="976.38" y2="390.00" stroke="#e2e2e2" stroke-width="1"/><text x="976.38" y="168.00" font-family="'IBM Plex Mono', ui-monospace, monospace" font-size="9" font-feature-settings="'tnum'" text-anchor="middle" fill="#888888">7</text><line x1="1083.00" y1="154" x2="1083.00" y2="390.00" stroke="#e2e2e2" stroke-width="1"/><text x="1083.00" y="168.00" font-family="'IBM Plex Mono', ui-monospace, monospace" font-size="9" font-feature-settings="'tnum'" text-anchor="middle" fill="#888888">8</text><text x="40" y="187.00" font-size="10" fill="#333333">Aushub</text><rect x="230.00" y="176.00" width="104.63" height="13.00" fill="#3f6fa8" rx="2"/><text x="40" y="205.00" font-size="10" fill="#333333">Fundament/Bodenplatte</text><rect x="336.63" y="194.00" width="104.63" height="13.00" fill="#3f6fa8" rx="2"/><text x="40" y="223.00" font-size="10" fill="#333333">Rohbau EG</text><rect x="443.25" y="212.00" width="104.63" height="13.00" fill="#3f6fa8" rx="2"/><text x="40" y="241.00" font-size="10" fill="#333333">Dach</text><rect x="549.88" y="230.00" width="104.63" height="13.00" fill="#3f6fa8" rx="2"/><text x="40" y="259.00" font-size="10" fill="#333333">Fenster/Hülle dicht</text><rect x="656.50" y="248.00" width="104.63" height="13.00" fill="#3f6fa8" rx="2"/><text x="40" y="277.00" font-size="10" fill="#333333">Elektro</text><rect x="763.13" y="266.00" width="104.63" height="13.00" fill="#9cbadb" rx="2"/><text x="40" y="295.00" font-size="10" fill="#333333">Sanitär/Heizung</text><rect x="763.13" y="284.00" width="104.63" height="13.00" fill="#9cbadb" rx="2"/><text x="40" y="313.00" font-size="10" fill="#333333">Trockenbau/Gipser</text><rect x="763.13" y="302.00" width="104.63" height="13.00" fill="#9cbadb" rx="2"/><text x="40" y="331.00" font-size="10" fill="#333333">Bodenbeläge</text><rect x="763.13" y="320.00" width="104.63" height="13.00" fill="#9cbadb" rx="2"/><text x="40" y="349.00" font-size="10" fill="#333333">Maler</text><rect x="763.13" y="338.00" width="104.63" height="13.00" fill="#9cbadb" rx="2"/><text x="40" y="367.00" font-size="10" fill="#333333">Umgebung</text><rect x="869.75" y="356.00" width="104.63" height="13.00" fill="#3f6fa8" rx="2"/><text x="40" y="385.00" font-size="10" fill="#333333">Abnahme</text><rect x="976.38" y="374.00" width="104.63" height="13.00" fill="#3f6fa8" rx="2"/><rect x="230.00" y="154" width="853.00" height="236.00" fill="none" stroke="#999999" stroke-width="1"/><line x1="40" y1="686" x2="1083" y2="686" stroke="#bbbbbb" stroke-width="1"/><text x="40" y="698.00" font-size="10.5" fill="#555555">Abgeleiteter Grob-Terminplan, ersetzt keine Bauleitung.</text><text x="40" y="712.00" font-size="10.5" fill="#555555">Leistungswerte (Annahme Owner-Guideline, kein verbindlicher Wert): Aushub 250 m²/Woche · Rohbau 60 m³/Woche · Dach 200 m²/Woche · Hülle 150 m²/Woche · Umgebung 300 m²/Woche · Abnahme 1 Wochen</text><text x="40" y="726.00" font-size="10.5" fill="#555555">fix.</text><text x="40" y="740.00" font-size="10.5" fill="#555555">Grenzen: relative Wochen ohne Kalenderbezug, keine Ressourcen-/Kapazitätsprüfung je Gewerk, keine Feiertage/Winterpause — ersetzt keine Bauleitungssoftware.</text></svg>