<svg xmlns="http://www.w3.org/2000/svg" width="841mm" height="594mm" viewBox="0 0 841 594" font-family="Helvetica, Arial, sans-serif">
<rect width="841" height="594" fill="white"/>
<rect x="10" y="10" width="821" height="574" fill="none" stroke="black" stroke-width="0.35"/>
<g transform="translate(122.833, 109.000) scale(0.006666666666666667)">
<path d="M 8125 125 L 8125 -6125 L -125 -6125 L -125 125 Z M 125 -5875 L 7875 -5875 L 7875 -125 L 125 -125 Z" fill-rule="evenodd" fill="#c9c9c9" stroke="#111" stroke-width="75"/>
<path d="M 0 0 L 8000 0 L 8000 -6000 L 0 -6000 Z" fill-rule="evenodd" fill="none" stroke="#111" stroke-width="27"/>
<path d="M -6000 5000 L 14000 5000 L 14000 -11000 L -6000 -11000 Z" fill-rule="evenodd" fill="none" stroke="#111" stroke-width="27"/>
<path d="M 0 0 L 8000 0 L 8000 -6000 L 0 -6000 Z" fill-rule="evenodd" fill="none" stroke="#111" stroke-width="27" stroke-dasharray="300 150"/>
<g stroke="#111" fill="#111">
<line x1="0" y1="1200" x2="8000" y2="1200" stroke-width="27"/>
<line x1="-120" y1="1320" x2="120" y2="1080" stroke-width="54"/>
<line x1="7880" y1="1320" x2="8120" y2="1080" stroke-width="54"/>
<text x="4000" y="1020" text-anchor="middle" font-size="390" stroke="none">800</text>
</g>
<g stroke="#111" fill="#111">
<line x1="-1200" y1="0" x2="-1200" y2="-6000" stroke-width="27"/>
<line x1="-1320" y1="-120" x2="-1080" y2="120" stroke-width="54"/>
<line x1="-1320" y1="-6120" x2="-1080" y2="-5880" stroke-width="54"/>
<text x="-1380" y="-3000" text-anchor="middle" font-size="390" stroke="none" transform="rotate(-90 -1380 -3000)">600</text>
</g>
</g>
<text x="149.5" y="148.33" text-anchor="middle" font-size="3.6" font-weight="bold">Grundriss EG  <tspan font-weight="normal" fill="#444">1:150</tspan></text>
<g transform="translate(335.500, 146.500) scale(0.02)">
<path d="M 8875 -1500 L 8875 -3000 L 8994.791666666666 -3000 L 9125 -3000 L 9125 -1500 L 9125 0 L 8994.791666666666 0 L 8875 0 Z" fill-rule="evenodd" fill="#dad7d1" stroke="none"/>
<polyline points="9036.824663564079,-9.094947017729282e-13 9125,-88.17533643592196" fill="none" stroke="#3A3A3A" stroke-width="9"/>
<polyline points="8909.5454429505,-9.094947017729282e-13 9125,-215.45455704950018" fill="none" stroke="#3A3A3A" stroke-width="9"/>
<polyline points="8875,-92.7337776630784 9125,-342.7337776630793" fill="none" stroke="#3A3A3A" stroke-width="9"/>
<polyline points="8875,-220.01299827665662 9125,-470.0129982766575" fill="none" stroke="#3A3A3A" stroke-width="9"/>
<polyline points="8875,-347.29221889023574 9125,-597.2922188902357" fill="none" stroke="#3A3A3A" stroke-width="9"/>
<polyline points="8875,-474.57143950381396 9125,-724.571439503814" fill="none" stroke="#3A3A3A" stroke-width="9"/>
<polyline points="8875,-601.8506601173931 9125,-851.8506601173931" fill="none" stroke="#3A3A3A" stroke-width="9"/>
<polyline points="8875,-729.1298807309713 9125,-979.1298807309722" fill="none" stroke="#3A3A3A" stroke-width="9"/>
<polyline points="8875,-856.4091013445495 9125,-1106.4091013445504" fill="none" stroke="#3A3A3A" stroke-width="9"/>
<polyline points="8875,-983.6883219581277 9125,-1233.6883219581287" fill="none" stroke="#3A3A3A" stroke-width="9"/>
<polyline points="8875,-1110.9675425717073 9125,-1360.9675425717073" fill="none" stroke="#3A3A3A" stroke-width="9"/>
<polyline points="8875,-1238.2467631852855 9125,-1488.2467631852855" fill="none" stroke="#3A3A3A" stroke-width="9"/>
<polyline points="8875,-1365.5259837988642 9125,-1615.5259837988642" fill="none" stroke="#3A3A3A" stroke-width="9"/>
<polyline points="8875,-1492.8052044124424 9125,-1742.8052044124433" fill="none" stroke="#3A3A3A" stroke-width="9"/>
<polyline points="8875,-1620.0844250260207 9125,-1870.0844250260216" fill="none" stroke="#3A3A3A" stroke-width="9"/>
<polyline points="8875,-1747.3636456396002 9125,-1997.3636456396002" fill="none" stroke="#3A3A3A" stroke-width="9"/>
<polyline points="8875,-1874.6428662531785 9125,-2124.6428662531785" fill="none" stroke="#3A3A3A" stroke-width="9"/>
<polyline points="8875,-2001.9220868667571 9125,-2251.922086866757" fill="none" stroke="#3A3A3A" stroke-width="9"/>
<polyline points="8875,-2129.2013074803353 9125,-2379.2013074803353" fill="none" stroke="#3A3A3A" stroke-width="9"/>
<polyline points="8875,-2256.4805280939136 9125,-2506.4805280939145" fill="none" stroke="#3A3A3A" stroke-width="9"/>
<polyline points="8875,-2383.7597487074922 9125,-2633.759748707493" fill="none" stroke="#3A3A3A" stroke-width="9"/>
<polyline points="8875,-2511.0389693210714 9125,-2761.0389693210714" fill="none" stroke="#3A3A3A" stroke-width="9"/>
<polyline points="8875,-2638.3181899346496 9125,-2888.3181899346496" fill="none" stroke="#3A3A3A" stroke-width="9"/>
<polyline points="8874.999999999998,-2765.5974105482273 9109.402589451773,-3000" fill="none" stroke="#3A3A3A" stroke-width="9"/>
<polyline points="8874.999999999998,-2892.8766311618056 8982.123368838193,-3000" fill="none" stroke="#3A3A3A" stroke-width="9"/>
<path d="M 1125 -1500 L 1125 -3000 L 1005.2083333333334 -3000 L 875 -3000 L 875 -1500 L 875 0 L 1005.2083333333334 0 L 1125 0 Z" fill-rule="evenodd" fill="#dad7d1" stroke="none"/>
<polyline points="1018.2337649086285,0 1125,-106.76623509137153" fill="none" stroke="#3A3A3A" stroke-width="9"/>
<polyline points="890.95454429505,0 1125,-234.04545570494992" fill="none" stroke="#3A3A3A" stroke-width="9"/>
<polyline points="875,-111.32467631852859 1125,-361.32467631852853" fill="none" stroke="#3A3A3A" stroke-width="9"/>
<polyline points="875,-238.60389693210715 1125,-488.60389693210703" fill="none" stroke="#3A3A3A" stroke-width="9"/>
<polyline points="874.9999999999999,-365.88311754568554 1125,-615.8831175456856" fill="none" stroke="#3A3A3A" stroke-width="9"/>
<polyline points="874.9999999999999,-493.16233815926415 1125,-743.1623381592642" fill="none" stroke="#3A3A3A" stroke-width="9"/>
<polyline points="875,-620.4415587728428 1125,-870.4415587728428" fill="none" stroke="#3A3A3A" stroke-width="9"/>
<polyline points="874.9999999999999,-747.7207793864211 1125,-997.7207793864211" fill="none" stroke="#3A3A3A" stroke-width="9"/>
<polyline points="874.9999999999999,-874.9999999999998 1125,-1124.9999999999998" fill="none" stroke="#3A3A3A" stroke-width="9"/>
<polyline points="875,-1002.2792206135782 1125,-1252.2792206135784" fill="none" stroke="#3A3A3A" stroke-width="9"/>
<polyline points="874.9999999999999,-1129.558441227157 1125.0000000000002,-1379.558441227157" fill="none" stroke="#3A3A3A" stroke-width="9"/>
<polyline points="875,-1256.8376618407353 1125,-1506.8376618407353" fill="none" stroke="#3A3A3A" stroke-width="9"/>
<polyline points="875,-1384.116882454314 1125,-1634.116882454314" fill="none" stroke="#3A3A3A" stroke-width="9"/>
<polyline points="874.9999999999999,-1511.3961030678925 1125,-1761.3961030678927" fill="none" stroke="#3A3A3A" stroke-width="9"/>
<polyline points="875,-1638.6753236814711 1124.9999999999998,-1888.6753236814707" fill="none" stroke="#3A3A3A" stroke-width="9"/>
<polyline points="875,-1765.9545442950496 1124.9999999999998,-2015.9545442950493" fill="none" stroke="#3A3A3A" stroke-width="9"/>
<polyline points="875,-1893.2337649086282 1124.9999999999998,-2143.233764908628" fill="none" stroke="#3A3A3A" stroke-width="9"/>
<polyline points="874.9999999999999,-2020.5129855222067 1125,-2270.5129855222067" fill="none" stroke="#3A3A3A" stroke-width="9"/>
<polyline points="875,-2147.7922061357854 1125.0000000000002,-2397.7922061357854" fill="none" stroke="#3A3A3A" stroke-width="9"/>
<polyline points="875,-2275.071426749364 1124.9999999999998,-2525.0714267493636" fill="none" stroke="#3A3A3A" stroke-width="9"/>
<polyline points="875.0000000000001,-2402.3506473629423 1125,-2652.3506473629423" fill="none" stroke="#3A3A3A" stroke-width="9"/>
<polyline points="874.9999999999999,-2529.629867976521 1124.9999999999995,-2779.6298679765205" fill="none" stroke="#3A3A3A" stroke-width="9"/>
<polyline points="874.9999999999998,-2656.909088590099 1125.0000000000002,-2906.9090885900996" fill="none" stroke="#3A3A3A" stroke-width="9"/>
<polyline points="874.9999999999997,-2784.188309203678 1090.8116907963222,-3000" fill="none" stroke="#3A3A3A" stroke-width="9"/>
<polyline points="874.9999999999997,-2911.467529817256 963.5324701827434,-3000" fill="none" stroke="#3A3A3A" stroke-width="9"/>
<path d="M 1000 0 L 5000 0 L 9000 0 L 9000 125 L 9000 250 L 5000 250 L 1000 250 L 1000 125 Z" fill-rule="evenodd" fill="#dad7d1" stroke="none"/>
<polyline points="8914.103884177657,250 9000,164.10388417765716" fill="none" stroke="#3A3A3A" stroke-width="9"/>
<polyline points="8786.824663564079,249.9999999999991 9000,36.82466356407804" fill="none" stroke="#3A3A3A" stroke-width="9"/>
<polyline points="8659.5454429505,250 8909.5454429505,0" fill="none" stroke="#3A3A3A" stroke-width="9"/>
<polyline points="8532.26622233692,250 8782.26622233692,0" fill="none" stroke="#3A3A3A" stroke-width="9"/>
<polyline points="8404.987001723342,250 8654.987001723342,0" fill="none" stroke="#3A3A3A" stroke-width="9"/>
<polyline points="8277.707781109764,250 8527.707781109762,0" fill="none" stroke="#3A3A3A" stroke-width="9"/>
<polyline points="8150.428560496186,250 8400.428560496184,9.094947017729282e-13" fill="none" stroke="#3A3A3A" stroke-width="9"/>
<polyline points="8023.149339882608,249.99999999999955 8273.149339882606,0" fill="none" stroke="#3A3A3A" stroke-width="9"/>
<polyline points="7895.870119269028,250.00000000000045 8145.870119269028,0" fill="none" stroke="#3A3A3A" stroke-width="9"/>
<polyline points="7768.59089865545,250 8018.59089865545,0" fill="none" stroke="#3A3A3A" stroke-width="9"/>
<polyline points="7641.311678041871,250 7891.311678041871,0" fill="none" stroke="#3A3A3A" stroke-width="9"/>
<polyline points="7514.032457428293,249.99999999999955 7764.032457428293,0" fill="none" stroke="#3A3A3A" stroke-width="9"/>
<polyline points="7386.753236814714,250 7636.753236814713,9.094947017729282e-13" fill="none" stroke="#3A3A3A" stroke-width="9"/>
<polyline points="7259.474016201135,250 7509.474016201135,-4.547473508864641e-13" fill="none" stroke="#3A3A3A" stroke-width="9"/>
<polyline points="7132.194795587557,249.99999999999955 7382.194795587557,0" fill="none" stroke="#3A3A3A" stroke-width="9"/>
<polyline points="7004.915574973978,250 7254.915574973978,0" fill="none" stroke="#3A3A3A" stroke-width="9"/>
<polyline points="6877.6363543604,249.99999999999955 7127.6363543604,0" fill="none" stroke="#3A3A3A" stroke-width="9"/>
<polyline points="6750.357133746822,249.99999999999955 7000.357133746821,0" fill="none" stroke="#3A3A3A" stroke-width="9"/>
<polyline points="6623.077913133242,249.99999999999955 6873.077913133242,4.547473508864641e-13" fill="none" stroke="#3A3A3A" stroke-width="9"/>
<polyline points="6495.798692519664,250 6745.798692519664,0" fill="none" stroke="#3A3A3A" stroke-width="9"/>
<polyline points="6368.5194719060855,249.99999999999955 6618.5194719060855,0" fill="none" stroke="#3A3A3A" stroke-width="9"/>
<polyline points="6241.240251292507,249.99999999999955 6491.2402512925055,4.547473508864641e-13" fill="none" stroke="#3A3A3A" stroke-width="9"/>
<polyline points="6113.961030678929,249.99999999999955 6363.961030678928,0" fill="none" stroke="#3A3A3A" stroke-width="9"/>
<polyline points="5986.68181006535,250 6236.681810065349,4.547473508864641e-13" fill="none" stroke="#3A3A3A" stroke-width="9"/>
<polyline points="5859.402589451771,250 6109.402589451771,-4.547473508864641e-13" fill="none" stroke="#3A3A3A" stroke-width="9"/>
<polyline points="5732.123368838193,250 5982.123368838193,0" fill="none" stroke="#3A3A3A" stroke-width="9"/>
<polyline points="5604.844148224614,249.99999999999955 5854.844148224613,4.547473508864641e-13" fill="none" stroke="#3A3A3A" stroke-width="9"/>
<polyline points="5477.564927611035,250 5727.564927611035,0" fill="none" stroke="#3A3A3A" stroke-width="9"/>
<polyline points="5350.285706997457,250 5600.285706997456,4.547473508864641e-13" fill="none" stroke="#3A3A3A" stroke-width="9"/>
<polyline points="5223.006486383878,250 5473.006486383878,0" fill="none" stroke="#3A3A3A" stroke-width="9"/>
<polyline points="5095.7272657703,250 5345.7272657703,0" fill="none" stroke="#3A3A3A" stroke-width="9"/>
<polyline points="4968.4480451567215,250 5218.4480451567215,4.547473508864641e-13" fill="none" stroke="#3A3A3A" stroke-width="9"/>
<polyline points="4841.168824543142,250 5091.168824543142,0" fill="none" stroke="#3A3A3A" stroke-width="9"/>
<polyline points="4713.889603929564,250 4963.889603929563,4.547473508864641e-13" fill="none" stroke="#3A3A3A" stroke-width="9"/>
<polyline points="4586.610383315985,250 4836.610383315985,0" fill="none" stroke="#3A3A3A" stroke-width="9"/>
<polyline points="4459.331162702407,250 4709.331162702407,0" fill="none" stroke="#3A3A3A" stroke-width="9"/>
<polyline points="4332.051942088829,250 4582.051942088829,0" fill="none" stroke="#3A3A3A" stroke-width="9"/>
<polyline points="4204.77272147525,250 4454.77272147525,0" fill="none" stroke="#3A3A3A" stroke-width="9"/>
<polyline points="4077.4935008616712,249.99999999999977 4327.49350086167,4.547473508864641e-13" fill="none" stroke="#3A3A3A" stroke-width="9"/>
<polyline points="3950.2142802480926,250.00000000000023 4200.214280248092,4.547473508864641e-13" fill="none" stroke="#3A3A3A" stroke-width="9"/>
<polyline points="3822.935059634514,250 4072.935059634514,0" fill="none" stroke="#3A3A3A" stroke-width="9"/>
<polyline points="3695.6558390209357,249.99999999999977 3945.655839020935,4.547473508864641e-13" fill="none" stroke="#3A3A3A" stroke-width="9"/>
<polyline points="3568.376618407357,249.99999999999977 3818.3766184073565,4.547473508864641e-13" fill="none" stroke="#3A3A3A" stroke-width="9"/>
<polyline points="3441.0973977937783,250 3691.0973977937783,0" fill="none" stroke="#3A3A3A" stroke-width="9"/>
<polyline points="3313.8181771802,249.99999999999955 3563.8181771802,0" fill="none" stroke="#3A3A3A" stroke-width="9"/>
<polyline points="3186.5389565666214,249.99999999999955 3436.538956566621,2.2737367544323206e-13" fill="none" stroke="#3A3A3A" stroke-width="9"/>
<polyline points="3059.2597359530428,250 3309.2597359530428,2.2737367544323206e-13" fill="none" stroke="#3A3A3A" stroke-width="9"/>
<polyline points="2931.9805153394636,250.00000000000023 3181.980515339464,0" fill="none" stroke="#3A3A3A" stroke-width="9"/>
<polyline points="2804.7012947258854,250 3054.7012947258854,-2.2737367544323206e-13" fill="none" stroke="#3A3A3A" stroke-width="9"/>
<polyline points="2677.4220741123067,249.99999999999977 2927.422074112307,-2.2737367544323206e-13" fill="none" stroke="#3A3A3A" stroke-width="9"/>
<polyline points="2550.1428534987285,250 2800.1428534987285,0" fill="none" stroke="#3A3A3A" stroke-width="9"/>
<polyline points="2422.86363288515,250.00000000000023 2672.86363288515,0" fill="none" stroke="#3A3A3A" stroke-width="9"/>
<polyline points="2295.584412271571,250.0000000000001 2545.5844122715716,-2.2737367544323206e-13" fill="none" stroke="#3A3A3A" stroke-width="9"/>
<polyline points="2168.305191657993,249.9999999999999 2418.3051916579925,0" fill="none" stroke="#3A3A3A" stroke-width="9"/>
<polyline points="2041.0259710444143,249.9999999999999 2291.0259710444143,0" fill="none" stroke="#3A3A3A" stroke-width="9"/>
<polyline points="1913.7467504308356,249.99999999999977 2163.746750430835,2.2737367544323206e-13" fill="none" stroke="#3A3A3A" stroke-width="9"/>
<polyline points="1786.467529817257,249.9999999999999 2036.467529817257,0" fill="none" stroke="#3A3A3A" stroke-width="9"/>
<polyline points="1659.1883092036787,249.99999999999966 1909.1883092036783,2.2737367544323206e-13" fill="none" stroke="#3A3A3A" stroke-width="9"/>
<polyline points="1531.9090885901,249.99999999999966 1781.9090885901,0" fill="none" stroke="#3A3A3A" stroke-width="9"/>
<polyline points="1404.6298679765216,249.99999999999977 1654.6298679765214,0" fill="none" stroke="#3A3A3A" stroke-width="9"/>
<polyline points="1277.350647362943,249.99999999999977 1527.3506473629427,-1.1368683772161603e-13" fill="none" stroke="#3A3A3A" stroke-width="9"/>
<polyline points="1150.0714267493645,249.99999999999966 1400.0714267493643,0" fill="none" stroke="#3A3A3A" stroke-width="9"/>
<polyline points="1022.7922061357859,249.9999999999996 1272.7922061357856,0" fill="none" stroke="#3A3A3A" stroke-width="9"/>
<polyline points="1000,145.51298552220715 1145.5129855222071,0" fill="none" stroke="#3A3A3A" stroke-width="9"/>
<polyline points="1000,18.23376490862853 1018.2337649086285,0" fill="none" stroke="#3A3A3A" stroke-width="9"/>
<path d="M 1000 -6000 L 5000 -6000 L 9000 -6000 L 9000 -3000 L 9000 0 L 5000 0 L 1000 0 L 1000 -3000 Z" fill-rule="evenodd" fill="#dcd9d3" stroke="none"/>
<line x1="8875" y1="0" x2="8875" y2="-3000" stroke="#666" stroke-width="9"/>
<line x1="9125" y1="0" x2="9125" y2="-3000" stroke="#666" stroke-width="9"/>
<line x1="8875" y1="0" x2="1125" y2="0" stroke="#666" stroke-width="9"/>
<line x1="8875" y1="-3000" x2="1125" y2="-3000" stroke="#666" stroke-width="9"/>
<line x1="8875" y1="0" x2="8875" y2="-3000" stroke="#666" stroke-width="9"/>
<line x1="1125" y1="0" x2="1125" y2="-3000" stroke="#666" stroke-width="9"/>
<line x1="9125" y1="0" x2="9120" y2="0" stroke="#666" stroke-width="9"/>
<line x1="880" y1="0" x2="875" y2="0" stroke="#666" stroke-width="9"/>
<line x1="9125" y1="-3000" x2="9120" y2="-3000" stroke="#666" stroke-width="9"/>
<line x1="880" y1="-3000" x2="875" y2="-3000" stroke="#666" stroke-width="9"/>
<line x1="9125" y1="0" x2="9125" y2="-3000" stroke="#666" stroke-width="9"/>
<line x1="875" y1="0" x2="875" y2="-3000" stroke="#666" stroke-width="9"/>
<line x1="1125" y1="0" x2="1125" y2="-3000" stroke="#666" stroke-width="9"/>
<line x1="875" y1="0" x2="875" y2="-3000" stroke="#666" stroke-width="9"/>
<line x1="9000" y1="250" x2="9000" y2="0" stroke="#666" stroke-width="9"/>
<line x1="9000" y1="0" x2="8995" y2="0" stroke="#666" stroke-width="9"/>
<line x1="1005" y1="0" x2="1000" y2="0" stroke="#666" stroke-width="9"/>
<line x1="9000" y1="250" x2="1000" y2="250" stroke="#666" stroke-width="9"/>
<line x1="1000" y1="250" x2="1000" y2="0" stroke="#666" stroke-width="9"/>
<line x1="9000" y1="0" x2="9000" y2="-6000" stroke="#666" stroke-width="9"/>
<line x1="9000" y1="-6000" x2="1000" y2="-6000" stroke="#666" stroke-width="9"/>
<line x1="9000" y1="0" x2="8995" y2="0" stroke="#666" stroke-width="9"/>
<line x1="1005" y1="0" x2="1000" y2="0" stroke="#666" stroke-width="9"/>
<line x1="1000" y1="0" x2="1000" y2="-6000" stroke="#666" stroke-width="9"/>
<line x1="8875" y1="-1500" x2="8875" y2="-3000" stroke="#111" stroke-width="25"/>
<line x1="8875" y1="0" x2="8875" y2="-1500" stroke="#111" stroke-width="25"/>
<line x1="9125" y1="-3000" x2="9125" y2="-1500" stroke="#111" stroke-width="25"/>
<line x1="9125" y1="-1500" x2="9125" y2="0" stroke="#111" stroke-width="25"/>
<line x1="8875" y1="0" x2="8994.791666666666" y2="0" stroke="#111" stroke-width="25"/>
<line x1="8994.791666666666" y1="0" x2="9125" y2="0" stroke="#111" stroke-width="25"/>
<line x1="9125" y1="-3000" x2="8994.791666666666" y2="-3000" stroke="#111" stroke-width="25"/>
<line x1="8994.791666666666" y1="-3000" x2="8875" y2="-3000" stroke="#111" stroke-width="25"/>
<line x1="1125" y1="-1500" x2="1125" y2="-3000" stroke="#111" stroke-width="25"/>
<line x1="1125" y1="0" x2="1125" y2="-1500" stroke="#111" stroke-width="25"/>
<line x1="875" y1="-3000" x2="875" y2="-1500" stroke="#111" stroke-width="25"/>
<line x1="875" y1="-1500" x2="875" y2="0" stroke="#111" stroke-width="25"/>
<line x1="1125" y1="0" x2="1005.2083333333334" y2="0" stroke="#111" stroke-width="25"/>
<line x1="1005.2083333333334" y1="0" x2="875" y2="0" stroke="#111" stroke-width="25"/>
<line x1="875" y1="-3000" x2="1005.2083333333334" y2="-3000" stroke="#111" stroke-width="25"/>
<line x1="1005.2083333333334" y1="-3000" x2="1125" y2="-3000" stroke="#111" stroke-width="25"/>
<line x1="1000" y1="0" x2="5000" y2="0" stroke="#111" stroke-width="25"/>
<line x1="5000" y1="0" x2="9000" y2="0" stroke="#111" stroke-width="25"/>
<line x1="5000" y1="250" x2="1000" y2="250" stroke="#111" stroke-width="25"/>
<line x1="9000" y1="250" x2="5000" y2="250" stroke="#111" stroke-width="25"/>
<line x1="9000" y1="250" x2="9000" y2="125" stroke="#111" stroke-width="25"/>
<line x1="9000" y1="125" x2="9000" y2="0" stroke="#111" stroke-width="25"/>
<line x1="1000" y1="250" x2="1000" y2="125" stroke="#111" stroke-width="25"/>
<line x1="1000" y1="125" x2="1000" y2="0" stroke="#111" stroke-width="25"/>
<line x1="1000" y1="-6000" x2="5000" y2="-6000" stroke="#111" stroke-width="25"/>
<line x1="5000" y1="-6000" x2="9000" y2="-6000" stroke="#111" stroke-width="25"/>
<line x1="5000" y1="0" x2="1000" y2="0" stroke="#111" stroke-width="25"/>
<line x1="9000" y1="0" x2="5000" y2="0" stroke="#111" stroke-width="25"/>
<line x1="9000" y1="0" x2="9000" y2="-3000" stroke="#111" stroke-width="25"/>
<line x1="9000" y1="-3000" x2="9000" y2="-6000" stroke="#111" stroke-width="25"/>
<line x1="1000" y1="0" x2="1000" y2="-3000" stroke="#111" stroke-width="25"/>
<line x1="1000" y1="-3000" x2="1000" y2="-6000" stroke="#111" stroke-width="25"/>
<line x1="75" y1="0" x2="9925" y2="0" stroke="#8a8a8a" stroke-width="9" stroke-dasharray="100 60"/>
<path d="M 75 0 l -40 -80 h 80 Z" fill="#111" stroke="#111" stroke-width="9"/>
<text x="-5" y="-96" text-anchor="end" font-size="130" font-family="monospace">±0.00</text>
</g>
<text x="420.5" y="157.50" text-anchor="middle" font-size="3.6" font-weight="bold">Schnitt A-A  <tspan font-weight="normal" fill="#444">1:50</tspan></text>
<g transform="translate(664.833, 69.000) scale(0.006666666666666667)">
<polygon points="-6000,5000 14000,5000 14000,-11000 -6000,-11000" fill="none" stroke="black" stroke-width="52.500" stroke-dasharray="450.00 135.00 90.00 135.00"/>
<polygon points="0,0 8000,0 8000,-6000 0,-6000" fill="#1a1a1a" stroke="none"/>
</g>
<text x="691.5" y="148.33" text-anchor="middle" font-size="3.6" font-weight="bold">Situationsplan  <tspan font-weight="normal" fill="#444">1:150</tspan></text>
<g transform="translate(136.406, 288.821) scale(0.006666666666666667)">
<line x1="-45.753175473054846" y1="170.75317547305482" x2="7098.956405748564" y2="-3954.2468245269442" stroke="#3A3A3A" stroke-width="52.5"/>
<line x1="-45.753175473054846" y1="-2829.246824526945" x2="7098.956405748564" y2="-6954.246824526945" stroke="#3A3A3A" stroke-width="52.5"/>
<line x1="-45.753175473054846" y1="170.75317547305482" x2="-45.753175473054846" y2="-2829.246824526945" stroke="#3A3A3A" stroke-width="52.5"/>
<line x1="7098.956405748564" y1="-3954.2468245269447" x2="7098.956405748564" y2="-6954.246824526945" stroke="#3A3A3A" stroke-width="52.5"/>
<line x1="7098.956405748564" y1="-6954.246824526945" x2="6928.20323027551" y2="-7249.999999999999" stroke="#3A3A3A" stroke-width="52.5"/>
<line x1="7098.956405748564" y1="-3954.2468245269447" x2="7098.956405748564" y2="-6954.246824526945" stroke="#3A3A3A" stroke-width="52.5"/>
<line x1="-2999.9999999999995" y1="-8340.48999000404" x2="-3170.753175473055" y2="-8241.905598179688" stroke="#3A3A3A" stroke-width="52.5"/>
<line x1="-3170.7531754730544" y1="-5241.905598179687" x2="-3170.7531754730544" y2="-8241.905598179688" stroke="#3A3A3A" stroke-width="52.5"/>
<line x1="-3170.7531754730544" y1="-5241.905598179687" x2="-45.75317547305485" y2="170.7531754730544" stroke="#3A3A3A" stroke-width="52.5"/>
<line x1="-3170.7531754730544" y1="-8241.905598179688" x2="-45.75317547305485" y2="-2829.2468245269447" stroke="#3A3A3A" stroke-width="52.5"/>
<line x1="-3170.7531754730544" y1="-5241.905598179687" x2="-3170.7531754730544" y2="-8241.905598179688" stroke="#3A3A3A" stroke-width="52.5"/>
<line x1="-45.753175473054846" y1="170.75317547305482" x2="-45.753175473054846" y2="-2829.246824526945" stroke="#3A3A3A" stroke-width="52.5"/>
<line x1="0" y1="250" x2="0" y2="144.33756729740645" stroke="#3A3A3A" stroke-width="52.5"/>
<line x1="0" y1="250" x2="6928.20323027551" y2="-3749.9999999999995" stroke="#3A3A3A" stroke-width="52.5"/>
<line x1="6928.20323027551" y1="-3749.9999999999995" x2="6928.20323027551" y2="-3855.662432702593" stroke="#3A3A3A" stroke-width="52.5"/>
<line x1="-2999.9999999999995" y1="-4946.152422706632" x2="-134.32835820895525" y2="17.336458684777426" stroke="#3A3A3A" stroke-width="52.5"/>
<line x1="-45.753175473049396" y1="170.7531754730644" x2="0" y2="250" stroke="#3A3A3A" stroke-width="52.5"/>
<line x1="0" y1="-2999.75" x2="0" y2="-6000" stroke="#3A3A3A" stroke-width="52.5"/>
<line x1="0" y1="-6000" x2="6928.20323027551" y2="-10000" stroke="#3A3A3A" stroke-width="52.5"/>
<line x1="6928.20323027551" y1="-6999.75" x2="6928.20323027551" y2="-10000" stroke="#3A3A3A" stroke-width="52.5"/>
<line x1="6928.20323027551" y1="-10000" x2="3928.20323027551" y2="-15196.152422706631" stroke="#3A3A3A" stroke-width="52.5"/>
<line x1="3928.20323027551" y1="-15196.152422706631" x2="-2999.9999999999995" y2="-11196.152422706633" stroke="#3A3A3A" stroke-width="52.5"/>
<line x1="-2999.9999999999995" y1="-8195.902422706633" x2="-2999.9999999999995" y2="-11196.152422706633" stroke="#3A3A3A" stroke-width="52.5"/>
<line x1="-2999.9999999999995" y1="-11196.152422706633" x2="0" y2="-6000" stroke="#3A3A3A" stroke-width="52.5"/>
</g>
<text x="149.5" y="296.49" text-anchor="middle" font-size="3.6" font-weight="bold">Axonometrie  <tspan font-weight="normal" fill="#444">1:150</tspan></text>
<rect x="562" y="170" width="259" height="172.66666666666666" fill="none" stroke="#666" stroke-width="0.25" stroke-dasharray="2.5 1.4"/>
<line x1="562" y1="170" x2="821" y2="342.66666666666663" stroke="#bbb" stroke-width="0.18"/>
<line x1="821" y1="170" x2="562" y2="342.66666666666663" stroke="#bbb" stroke-width="0.18"/>
<text x="691.5" y="256.3333333333333" text-anchor="middle" font-size="3.2" fill="#666">Render folgt — HomeStation</text>
<text x="291" y="174" font-size="4" ><tspan x="291" dy="0">Kennzahlen — Blatt Golden</tspan><tspan x="291" dy="5.40">Total GF: 144 m²</tspan></text>
<g font-size="3">
<rect x="711" y="558" width="120" height="26" fill="white" stroke="black" stroke-width="0.35"/>
<line x1="711" y1="567" x2="831" y2="567" stroke="black" stroke-width="0.18"/>
<text x="714" y="564" font-weight="bold" font-size="4">Golden-Blatt-Autofuellung</text>
<text x="714" y="573">Blatt Golden</text>
<text x="714" y="580" fill="#444">11.07.2026 · Werkplan (SIA 51)</text>
<text x="828" y="573" text-anchor="end">1:50 · 1:150</text>
<text x="828" y="580" text-anchor="end" fill="#444">Blatt 2 · A1</text>
</g>
</svg>