<svg xmlns="http://www.w3.org/2000/svg" width="420mm" height="297mm" viewBox="0 0 420 297" font-family="Helvetica, Arial, sans-serif">
<rect width="420" height="297" fill="white"/>
<g transform="translate(171.60, 135.40) scale(0.01)">
<path d="M 2000 0 L 0 0 L 0 -6000 L 9000 -6000 L 9000 0 L 7500 0 L 7500 180 L 9180 180 L 9180 -6180 L -180 -6180 L -180 180 L 2000 180 Z M 6500 0 L 4000 0 L 4000 180 L 6500 180 Z" fill-rule="evenodd" fill="#1a1a1a" stroke="#111" stroke-width="50"/>
<path d="M 8840 -160 L 8820 -180 L 7500 -180 L 7500 -160 Z M 6500 -160 L 6500 -180 L 4000 -180 L 4000 -160 Z M 2000 -160 L 2000 -180 L 180 -180 L 160 -160 Z" fill-rule="evenodd" fill="#c9c9c9" stroke="#111" stroke-width="35"/>
<path d="M 9000 0 L 8840 -160 L 7500 -160 L 7500 0 Z M 6500 0 L 6500 -160 L 4000 -160 L 4000 0 Z M 2000 0 L 2000 -160 L 160 -160 L 0 0 Z" fill-rule="evenodd" fill="#ffffff" stroke="#111" stroke-width="35"/>
<path d="M 8820 -180 L 8820 -5820 L 8840 -5840 L 8840 -160 Z" fill-rule="evenodd" fill="#c9c9c9" stroke="#111" stroke-width="35"/>
<path d="M 8840 -160 L 8840 -5840 L 9000 -6000 L 9000 0 Z" fill-rule="evenodd" fill="#ffffff" stroke="#111" stroke-width="35"/>
<path d="M 8820 -5820 L 180 -5820 L 160 -5840 L 8840 -5840 Z" fill-rule="evenodd" fill="#c9c9c9" stroke="#111" stroke-width="35"/>
<path d="M 8840 -5840 L 160 -5840 L 0 -6000 L 9000 -6000 Z" fill-rule="evenodd" fill="#ffffff" stroke="#111" stroke-width="35"/>
<path d="M 180 -5820 L 180 -180 L 160 -160 L 160 -5840 Z" fill-rule="evenodd" fill="#c9c9c9" stroke="#111" stroke-width="35"/>
<path d="M 160 -5840 L 160 -160 L 0 0 L 0 -6000 Z" fill-rule="evenodd" fill="#ffffff" stroke="#111" stroke-width="35"/>
<line x1="2000" y1="-180" x2="2000" y2="180" stroke="#111" stroke-width="25"/>
<line x1="4000" y1="-180" x2="4000" y2="180" stroke="#111" stroke-width="25"/>
<line x1="2000" y1="25" x2="4000" y2="25" stroke="#111" stroke-width="18"/>
<line x1="2000" y1="-25" x2="4000" y2="-25" stroke="#111" stroke-width="18"/>
<line x1="6500" y1="-180" x2="6500" y2="180" stroke="#111" stroke-width="25"/>
<line x1="7500" y1="-180" x2="7500" y2="180" stroke="#111" stroke-width="25"/>
<line x1="6500" y1="-180" x2="6500" y2="-1180" stroke="#111" stroke-width="25"/>
<path d="M 7500 -180 A 1000 1000 0 0 0 6500 -1180" fill="none" stroke="#666" stroke-width="18" stroke-dasharray="100 70"/>
<g stroke="#111" fill="#111">
<line x1="0" y1="1200" x2="9000" y2="1200" stroke-width="18"/>
<line x1="-80" y1="1280" x2="80" y2="1120" stroke-width="36"/>
<line x1="1920" y1="1280" x2="2080" y2="1120" stroke-width="36"/>
<line x1="3920" y1="1280" x2="4080" y2="1120" stroke-width="36"/>
<line x1="6420" y1="1280" x2="6580" y2="1120" stroke-width="36"/>
<line x1="7420" y1="1280" x2="7580" y2="1120" stroke-width="36"/>
<line x1="8920" y1="1280" x2="9080" y2="1120" stroke-width="36"/>
<text x="1000" y="1080" text-anchor="middle" font-size="260" font-family="'IBM Plex Mono', ui-monospace, monospace" stroke="none">200</text>
<text x="3000" y="1080" text-anchor="middle" font-size="260" font-family="'IBM Plex Mono', ui-monospace, monospace" stroke="none">200</text>
<text x="3000" y="1420" text-anchor="middle" font-size="200" font-family="'IBM Plex Mono', ui-monospace, monospace" stroke="none">150/90</text>
<text x="5250" y="1080" text-anchor="middle" font-size="260" font-family="'IBM Plex Mono', ui-monospace, monospace" stroke="none">250</text>
<text x="7000" y="1080" text-anchor="middle" font-size="260" font-family="'IBM Plex Mono', ui-monospace, monospace" stroke="none">100</text>
<text x="7000" y="1420" text-anchor="middle" font-size="200" font-family="'IBM Plex Mono', ui-monospace, monospace" stroke="none">220</text>
<text x="8250" y="1080" text-anchor="middle" font-size="260" font-family="'IBM Plex Mono', ui-monospace, monospace" stroke="none">150</text>
</g>
<g stroke="#111" fill="#111">
<line x1="0" y1="2000" x2="9000" y2="2000" stroke-width="18"/>
<line x1="-80" y1="2080" x2="80" y2="1920" stroke-width="36"/>
<line x1="8920" y1="2080" x2="9080" y2="1920" stroke-width="36"/>
<text x="4500" y="1880" text-anchor="middle" font-size="260" font-family="'IBM Plex Mono', ui-monospace, monospace" stroke="none">900</text>
</g>
<g stroke="#111" fill="#111">
<line x1="-1200" y1="0" x2="-1200" y2="-6000" stroke-width="18"/>
<line x1="-1280" y1="-80" x2="-1120" y2="80" stroke-width="36"/>
<line x1="-1280" y1="-6080" x2="-1120" y2="-5920" stroke-width="36"/>
<text x="-1320" y="-3000" text-anchor="middle" font-size="260" font-family="'IBM Plex Mono', ui-monospace, monospace" stroke="none" transform="rotate(-90 -1320 -3000)">600</text>
</g>
</g>
<g data-teil="nordpfeil" stroke="black" fill="none" stroke-width="0.35">
<circle cx="404.00" cy="16.00" r="4"/>
<path d="M 404.00 19.00 L 404.00 13.00 M 402.60 14.60 L 404.00 13.00 L 405.40 14.60"/>
<text x="404.00" y="26.00" text-anchor="middle" font-family="'IBM Plex Mono', ui-monospace, monospace" font-size="3" font-feature-settings="'tnum'" font-weight="bold" stroke="none" fill="black">N</text>
</g>
<g data-teil="plankopf">
<rect x="230" y="232" width="180" height="55" fill="white" stroke="black" stroke-width="0.35"/>
<rect x="230" y="232" width="180" height="1.3" fill="#94704F"/>
<line x1="278" y1="233.3" x2="278" y2="287" stroke="black" stroke-width="0.25"/>
<line x1="348" y1="233.3" x2="348" y2="287" stroke="black" stroke-width="0.25"/>
<rect x="231.5" y="234.8" width="45" height="15" fill="none" stroke="black" stroke-width="0.25" stroke-dasharray="1.5 1"/>
<text x="254.00" y="243.80" text-anchor="middle" font-family="'IBM Plex Mono', ui-monospace, monospace" font-size="5.6" font-feature-settings="'tnum'" font-weight="bold" fill="#94704F">—</text>
<text x="254.00" y="248.30" text-anchor="middle" font-family="'IBM Plex Mono', ui-monospace, monospace" font-size="1.3" font-feature-settings="'tnum'" letter-spacing="0.1em">BÜRO-LOGO</text>
<text x="279.50" y="241.00" text-anchor="start" font-family="'Lato', Helvetica, Arial, sans-serif" font-size="2.4">Golden-Testhaus</text>
<text x="279.50" y="284.50" text-anchor="start" font-family="'Lato', Helvetica, Arial, sans-serif" font-size="2.9">Grundriss · EG</text>
<text x="349.50" y="236.10" text-anchor="start" font-family="'IBM Plex Mono', ui-monospace, monospace" font-size="1.3" font-feature-settings="'tnum'" letter-spacing="0.1em">MASSSTAB</text>
<text x="349.50" y="239.50" text-anchor="start" font-family="'IBM Plex Mono', ui-monospace, monospace" font-size="2" font-feature-settings="'tnum'">1:100</text>
<text x="380.00" y="236.10" text-anchor="start" font-family="'IBM Plex Mono', ui-monospace, monospace" font-size="1.3" font-feature-settings="'tnum'" letter-spacing="0.1em">FORMAT</text>
<text x="380.00" y="239.50" text-anchor="start" font-family="'IBM Plex Mono', ui-monospace, monospace" font-size="2" font-feature-settings="'tnum'">A3</text>
<text x="349.50" y="241.70" text-anchor="start" font-family="'IBM Plex Mono', ui-monospace, monospace" font-size="1.3" font-feature-settings="'tnum'" letter-spacing="0.1em">PHASE</text>
<text x="349.50" y="245.10" text-anchor="start" font-family="'IBM Plex Mono', ui-monospace, monospace" font-size="2" font-feature-settings="'tnum'">VS · SIA 21</text>
<text x="380.00" y="241.70" text-anchor="start" font-family="'IBM Plex Mono', ui-monospace, monospace" font-size="1.3" font-feature-settings="'tnum'" letter-spacing="0.1em">DATUM</text>
<text x="380.00" y="245.10" text-anchor="start" font-family="'IBM Plex Mono', ui-monospace, monospace" font-size="2" font-feature-settings="'tnum'">10.07.2026</text>
<text x="349.50" y="247.30" text-anchor="start" font-family="'IBM Plex Mono', ui-monospace, monospace" font-size="1.3" font-feature-settings="'tnum'" letter-spacing="0.1em">GEZEICHNET</text>
<text x="380.00" y="247.30" text-anchor="start" font-family="'IBM Plex Mono', ui-monospace, monospace" font-size="1.3" font-feature-settings="'tnum'" letter-spacing="0.1em">GEPRÜFT</text>
<text x="349.50" y="254.10" text-anchor="start" font-family="'IBM Plex Mono', ui-monospace, monospace" font-size="1.3" font-feature-settings="'tnum'" letter-spacing="0.1em">PLAN-NR.</text>
<text x="349.50" y="258.70" text-anchor="start" font-family="'IBM Plex Mono', ui-monospace, monospace" font-size="3" font-feature-settings="'tnum'" font-weight="bold">—-—-VS-—-—-—</text>
</g>
</svg>