<svg xmlns="http://www.w3.org/2000/svg" width="420mm" height="297mm" viewBox="0 0 420 297" font-family="Helvetica, Arial, sans-serif">
<rect width="420" height="297" fill="white"/>
<g transform="translate(160.00, 167.50) scale(0.01)">
<path d="M 8205 205 L 8205 -6205 L -205 -6205 L -205 205 Z M 205 -5795 L 7795 -5795 L 7795 -205 L 205 -205 Z" fill-rule="evenodd" fill="#1a1a1a" stroke="#111" stroke-width="50"/>
<path d="M -10000 10000 L 20000 10000 L 20000 -16000 L -10000 -16000 Z" fill-rule="evenodd" fill="none" stroke="#111" stroke-width="35" stroke-dasharray="300 90 60 90"/>
<path d="M 10000 0 L 14000 0 L 14000 -4000 L 10000 -4000 Z" fill-rule="evenodd" fill="#c9c9c9" stroke="#8a8a8a" stroke-width="18"/>
<path d="M -6000 -8000 L -2000 -8000 L -2000 -12000 L -6000 -12000 Z" fill-rule="evenodd" fill="#c9c9c9" stroke="#8a8a8a" stroke-width="18"/>
<g stroke="#111" fill="#111">
<line x1="0" y1="1200" x2="8000" y2="1200" stroke-width="18"/>
<line x1="-80" y1="1280" x2="80" y2="1120" stroke-width="36"/>
<line x1="7920" y1="1280" x2="8080" y2="1120" stroke-width="36"/>
<text x="4000" y="1080" text-anchor="middle" font-size="260" font-family="'IBM Plex Mono', ui-monospace, monospace" stroke="none">800</text>
</g>
<g stroke="#111" fill="#111">
<line x1="-1200" y1="0" x2="-1200" y2="-6000" stroke-width="18"/>
<line x1="-1280" y1="-80" x2="-1120" y2="80" stroke-width="36"/>
<line x1="-1280" y1="-6080" x2="-1120" y2="-5920" stroke-width="36"/>
<text x="-1320" y="-3000" text-anchor="middle" font-size="260" font-family="'IBM Plex Mono', ui-monospace, monospace" stroke="none" transform="rotate(-90 -1320 -3000)">600</text>
</g>
</g>
<g stroke="black" fill="none" stroke-width="0.35">
<circle cx="404" cy="16" r="4"/>
<path d="M 404 19 L 404 13 M 402.6 14.6 L 404 13 L 405.4 14.6" />
<text x="404" y="26" text-anchor="middle" font-size="3" stroke="none" fill="black">N</text>
</g>
<g font-size="3.2">
<line x1="10" y1="279" x2="410" y2="279" stroke="black" stroke-width="0.35"/>
<text x="10" y="285" font-weight="bold" font-size="4.2">Golden-Kontext</text>
<text x="10" y="290.5">Grundriss Kontext Wettbewerb · EG</text>
<text x="410" y="285" text-anchor="end">1:100 · Masse in cm/m</text>
<text x="410" y="290.5" text-anchor="end">12.07.2026 · Wettbewerb (SIA 22)</text>
</g>
</svg>