<svg xmlns="http://www.w3.org/2000/svg" width="420mm" height="297mm" viewBox="0 0 420 297" font-family="Helvetica, Arial, sans-serif">
<rect width="420" height="297" fill="white"/>
<g transform="translate(141.45, 178.05) scale(0.02)">
<path d="M 3200 -205 L 205 -205 L 205 -5795 L 7795 -5795 L 7795 -205 L 4800 -205 L 4800 45 L 8045 45 L 8045 -6045 L -45 -6045 L -45 45 L 3200 45 Z" fill-rule="evenodd" fill="#c9c9c9" stroke="#111" stroke-width="25"/>
<path d="M 8205 205 L 8045 45 L 4800 45 L 4800 205 Z M 3200 205 L 3200 45 L -45 45 L -205 205 Z" fill-rule="evenodd" fill="#efefef" stroke="#111" stroke-width="17.5"/>
<path d="M 8045 45 L 8045 -6045 L 8205 -6205 L 8205 205 Z" fill-rule="evenodd" fill="#efefef" stroke="#111" stroke-width="17.5"/>
<path d="M 8045 -6045 L -45 -6045 L -205 -6205 L 8205 -6205 Z" fill-rule="evenodd" fill="#efefef" stroke="#111" stroke-width="17.5"/>
<path d="M -45 -6045 L -45 45 L -205 205 L -205 -6205 Z" fill-rule="evenodd" fill="#efefef" stroke="#111" stroke-width="17.5"/>
<line x1="3200" y1="-205" x2="3200" y2="205" stroke="#111" stroke-width="12.5"/>
<line x1="4800" y1="-205" x2="4800" y2="205" stroke="#111" stroke-width="12.5"/>
<line x1="3200" y1="25" x2="4800" y2="25" stroke="#111" stroke-width="9"/>
<line x1="3200" y1="-25" x2="4800" y2="-25" stroke="#111" stroke-width="9"/>
<line x1="3240" y1="-205" x2="3240" y2="-25" stroke="#111" stroke-width="12.5"/>
<line x1="4760" y1="-205" x2="4760" y2="-25" stroke="#111" stroke-width="12.5"/>
<line x1="4000" y1="25" x2="4000" y2="-25" stroke="#111" stroke-width="9"/>
<path d="M 4000 -205 A 800 800 0 0 0 3200 -1005" fill="none" stroke="#666" stroke-width="9" stroke-dasharray="50 35"/>
<path d="M 4000 -204.99999999999991 A 800 800 0 0 0 4800 -1005" fill="none" stroke="#666" stroke-width="9" stroke-dasharray="50 35"/>
<g stroke="#111" fill="#111">
<line x1="0" y1="1200" x2="8000" y2="1200" stroke-width="9"/>
<line x1="-40" y1="1240" x2="40" y2="1160" stroke-width="18"/>
<line x1="3160" y1="1240" x2="3240" y2="1160" stroke-width="18"/>
<line x1="4760" y1="1240" x2="4840" y2="1160" stroke-width="18"/>
<line x1="7960" y1="1240" x2="8040" y2="1160" stroke-width="18"/>
<text x="1600" y="1140" text-anchor="middle" font-size="130" stroke="none">320</text>
<text x="4000" y="1140" text-anchor="middle" font-size="130" stroke="none">160</text>
<text x="4000" y="1310" text-anchor="middle" font-size="100" stroke="none">140/90</text>
<text x="6400" y="1140" text-anchor="middle" font-size="130" stroke="none">320</text>
</g>
<g stroke="#111" fill="#111">
<line x1="0" y1="2000" x2="8000" y2="2000" stroke-width="9"/>
<line x1="-40" y1="2040" x2="40" y2="1960" stroke-width="18"/>
<line x1="7960" y1="2040" x2="8040" y2="1960" stroke-width="18"/>
<text x="4000" y="1940" text-anchor="middle" font-size="130" stroke="none">800</text>
</g>
<g stroke="#111" fill="#111">
<line x1="-1200" y1="0" x2="-1200" y2="-6000" stroke-width="9"/>
<line x1="-1240" y1="-40" x2="-1160" y2="40" stroke-width="18"/>
<line x1="-1240" y1="-6040" x2="-1160" y2="-5960" stroke-width="18"/>
<text x="-1260" y="-3000" text-anchor="middle" font-size="130" stroke="none" transform="rotate(-90 -1260 -3000)">600</text>
</g>
</g>
<g stroke="black" fill="none" stroke-width="0.35">
<circle cx="404" cy="16" r="4"/>
<path d="M 404 19 L 404 13 M 402.6 14.6 L 404 13 L 405.4 14.6" />
<text x="404" y="26" text-anchor="middle" font-size="3" stroke="none" fill="black">N</text>
</g>
<g font-size="3.2">
<line x1="10" y1="279" x2="410" y2="279" stroke="black" stroke-width="0.35"/>
<text x="10" y="285" font-weight="bold" font-size="4.2">Golden-Fenster</text>
<text x="10" y="290.5">Grundriss Zweiflügel · EG</text>
<text x="410" y="285" text-anchor="end">1:50 · Masse in cm/m</text>
<text x="410" y="290.5" text-anchor="end">10.07.2026 · Werkplan (SIA 51)</text>
</g>
</svg>