<svg xmlns="http://www.w3.org/2000/svg" width="420mm" height="297mm" viewBox="0 0 420 297" font-family="Helvetica, Arial, sans-serif">
<rect width="420" height="297" fill="white"/>
<g transform="translate(175.50, 162.00) scale(0.01)">
<path d="M 8045 45 L 8045 -6045 L -45 -6045 L -45 45 Z M 205 -5795 L 7795 -5795 L 7795 -205 L 205 -205 Z" fill-rule="evenodd" fill="#c9c9c9" stroke="black" stroke-width="50"/>
<path d="M -45 45 L 8045 45 L 8205 205 L -205 205 Z" fill-rule="evenodd" fill="#efefef" stroke="black" stroke-width="35"/>
<path d="M 8045 45 L 8045 -6045 L 8205 -6205 L 8205 205 Z" fill-rule="evenodd" fill="#efefef" stroke="black" stroke-width="35"/>
<path d="M 8045 -6045 L -45 -6045 L -205 -6205 L 8205 -6205 Z" fill-rule="evenodd" fill="#efefef" stroke="black" stroke-width="35"/>
<path d="M -45 -6045 L -45 45 L -205 205 L -205 -6205 Z" fill-rule="evenodd" fill="#efefef" stroke="black" stroke-width="35"/>
<line x1="-400" y1="-3000" x2="-400" y2="400" stroke="black" stroke-width="18"/>
<line x1="-400" y1="400" x2="8400" y2="400" stroke="black" stroke-width="35"/>
<line x1="8400" y1="400" x2="8400" y2="-3000" stroke="black" stroke-width="18"/>
<line x1="-400" y1="-3000" x2="8400" y2="-3000" stroke="black" stroke-width="50"/>
<line x1="8400" y1="-6400" x2="-400" y2="-6400" stroke="black" stroke-width="35"/>
<line x1="-400" y1="-6400" x2="-400" y2="-3000" stroke="black" stroke-width="18"/>
<line x1="8400" y1="-3000" x2="8400" y2="-6400" stroke="black" stroke-width="18"/>
<g stroke="black" fill="black">
<line x1="0" y1="1200" x2="8000" y2="1200" stroke-width="18"/>
<line x1="-80" y1="1280" x2="80" y2="1120" stroke-width="36"/>
<line x1="7920" y1="1280" x2="8080" y2="1120" stroke-width="36"/>
<text x="4000" y="1080" text-anchor="middle" font-size="260" stroke="none">800</text>
</g>
<g stroke="black" fill="black">
<line x1="-1200" y1="0" x2="-1200" y2="-6000" stroke-width="18"/>
<line x1="-1280" y1="-80" x2="-1120" y2="80" stroke-width="36"/>
<line x1="-1280" y1="-6080" x2="-1120" y2="-5920" stroke-width="36"/>
<text x="-1320" y="-3000" text-anchor="middle" font-size="260" stroke="none" transform="rotate(-90 -1320 -3000)">600</text>
</g>
</g>
<g stroke="black" fill="none" stroke-width="0.35">
<circle cx="404" cy="16" r="4"/>
<path d="M 404 19 L 404 13 M 402.6 14.6 L 404 13 L 405.4 14.6" />
<text x="404" y="26" text-anchor="middle" font-size="3" stroke="none" fill="black">N</text>
</g>
<g font-size="3.2">
<line x1="10" y1="279" x2="410" y2="279" stroke="black" stroke-width="0.35"/>
<text x="10" y="285" font-weight="bold" font-size="4.2">Golden-Satteldach</text>
<text x="10" y="290.5">Grundriss Dachaufsicht · EG</text>
<text x="410" y="285" text-anchor="end">1:100 · Masse in cm/m</text>
<text x="410" y="290.5" text-anchor="end">10.07.2026 · Werkplan (SIA 51)</text>
</g>
</svg>