<svg xmlns="http://www.w3.org/2000/svg" width="420mm" height="297mm" viewBox="0 0 420 297" font-family="Helvetica, Arial, sans-serif">
<rect width="420" height="297" fill="white"/>
<g transform="translate(141.45, 178.05) scale(0.02)">
<path d="M 900 -205 L 205 -205 L 205 -5795 L 7795 -5795 L 7795 -205 L 7100 -205 L 7100 45 L 8045 45 L 8045 -6045 L -45 -6045 L -45 45 L 900 45 Z M 5900 -205 L 4600 -205 L 4600 45 L 5900 45 Z M 3400 -205 L 2100 -205 L 2100 45 L 3400 45 Z" fill-rule="evenodd" fill="#c9c9c9" stroke="#111" stroke-width="25"/>
<path d="M 8205 205 L 8045 45 L 7100 45 L 7100 205 Z M 5900 205 L 5900 45 L 4600 45 L 4600 205 Z M 3400 205 L 3400 45 L 2100 45 L 2100 205 Z M 900 205 L 900 45 L -45 45 L -205 205 Z" fill-rule="evenodd" fill="#efefef" stroke="#111" stroke-width="17.5"/>
<path d="M 8045 45 L 8045 -6045 L 8205 -6205 L 8205 205 Z" fill-rule="evenodd" fill="#efefef" stroke="#111" stroke-width="17.5"/>
<path d="M 8045 -6045 L -45 -6045 L -205 -6205 L 8205 -6205 Z" fill-rule="evenodd" fill="#efefef" stroke="#111" stroke-width="17.5"/>
<path d="M -45 -6045 L -45 45 L -205 205 L -205 -6205 Z" fill-rule="evenodd" fill="#efefef" stroke="#111" stroke-width="17.5"/>
<line x1="900" y1="-205" x2="900" y2="205" stroke="#111" stroke-width="12.5"/>
<line x1="2100" y1="-205" x2="2100" y2="205" stroke="#111" stroke-width="12.5"/>
<line x1="900" y1="25" x2="2100" y2="25" stroke="#111" stroke-width="9"/>
<line x1="900" y1="-25" x2="2100" y2="-25" stroke="#111" stroke-width="9"/>
<line x1="940" y1="-205" x2="940" y2="-25" stroke="#111" stroke-width="12.5"/>
<line x1="2060" y1="-205" x2="2060" y2="-25" stroke="#111" stroke-width="12.5"/>
<line x1="1440" y1="30" x2="1440" y2="-30" stroke="#111" stroke-width="9"/>
<line x1="1560" y1="30" x2="1560" y2="-30" stroke="#111" stroke-width="9"/>
<line x1="3400" y1="-205" x2="3400" y2="205" stroke="#111" stroke-width="12.5"/>
<line x1="4600" y1="-205" x2="4600" y2="205" stroke="#111" stroke-width="12.5"/>
<line x1="3400" y1="25" x2="4600" y2="25" stroke="#111" stroke-width="9"/>
<line x1="3400" y1="-25" x2="4600" y2="-25" stroke="#111" stroke-width="9"/>
<line x1="3440" y1="-205" x2="3440" y2="-25" stroke="#111" stroke-width="12.5"/>
<line x1="4560" y1="-205" x2="4560" y2="-25" stroke="#111" stroke-width="12.5"/>
<line x1="3940" y1="30" x2="3940" y2="-30" stroke="#111" stroke-width="9"/>
<line x1="4060" y1="30" x2="4060" y2="-30" stroke="#111" stroke-width="9"/>
<line x1="5900" y1="-205" x2="5900" y2="205" stroke="#111" stroke-width="12.5"/>
<line x1="7100" y1="-205" x2="7100" y2="205" stroke="#111" stroke-width="12.5"/>
<line x1="5900" y1="25" x2="7100" y2="25" stroke="#111" stroke-width="9"/>
<line x1="5900" y1="-25" x2="7100" y2="-25" stroke="#111" stroke-width="9"/>
<line x1="5940" y1="-205" x2="5940" y2="-25" stroke="#111" stroke-width="12.5"/>
<line x1="7060" y1="-205" x2="7060" y2="-25" stroke="#111" stroke-width="12.5"/>
<line x1="5900" y1="40" x2="6590" y2="40" stroke="#111" stroke-width="9"/>
<line x1="6410" y1="-40" x2="7100" y2="-40" stroke="#111" stroke-width="9"/>
<g stroke="#111" fill="#111">
<line x1="0" y1="1200" x2="8000" y2="1200" stroke-width="9"/>
<line x1="-40" y1="1240" x2="40" y2="1160" stroke-width="18"/>
<line x1="860" y1="1240" x2="940" y2="1160" stroke-width="18"/>
<line x1="2060" y1="1240" x2="2140" y2="1160" stroke-width="18"/>
<line x1="3360" y1="1240" x2="3440" y2="1160" stroke-width="18"/>
<line x1="4560" y1="1240" x2="4640" y2="1160" stroke-width="18"/>
<line x1="5860" y1="1240" x2="5940" y2="1160" stroke-width="18"/>
<line x1="7060" y1="1240" x2="7140" y2="1160" stroke-width="18"/>
<line x1="7960" y1="1240" x2="8040" y2="1160" stroke-width="18"/>
<text x="450" y="1140" text-anchor="middle" font-size="130" font-family="'IBM Plex Mono', ui-monospace, monospace" stroke="none">90</text>
<text x="1500" y="1140" text-anchor="middle" font-size="130" font-family="'IBM Plex Mono', ui-monospace, monospace" stroke="none">120</text>
<text x="1500" y="1310" text-anchor="middle" font-size="100" font-family="'IBM Plex Mono', ui-monospace, monospace" stroke="none">140/90</text>
<text x="2750" y="1140" text-anchor="middle" font-size="130" font-family="'IBM Plex Mono', ui-monospace, monospace" stroke="none">130</text>
<text x="4000" y="1140" text-anchor="middle" font-size="130" font-family="'IBM Plex Mono', ui-monospace, monospace" stroke="none">120</text>
<text x="4000" y="1310" text-anchor="middle" font-size="100" font-family="'IBM Plex Mono', ui-monospace, monospace" stroke="none">140/90</text>
<text x="5250" y="1140" text-anchor="middle" font-size="130" font-family="'IBM Plex Mono', ui-monospace, monospace" stroke="none">130</text>
<text x="6500" y="1140" text-anchor="middle" font-size="130" font-family="'IBM Plex Mono', ui-monospace, monospace" stroke="none">120</text>
<text x="6500" y="1310" text-anchor="middle" font-size="100" font-family="'IBM Plex Mono', ui-monospace, monospace" stroke="none">140/90</text>
<text x="7550" y="1140" text-anchor="middle" font-size="130" font-family="'IBM Plex Mono', ui-monospace, monospace" stroke="none">90</text>
</g>
<g stroke="#111" fill="#111">
<line x1="0" y1="2000" x2="8000" y2="2000" stroke-width="9"/>
<line x1="-40" y1="2040" x2="40" y2="1960" stroke-width="18"/>
<line x1="7960" y1="2040" x2="8040" y2="1960" stroke-width="18"/>
<text x="4000" y="1940" text-anchor="middle" font-size="130" font-family="'IBM Plex Mono', ui-monospace, monospace" stroke="none">800</text>
</g>
<g stroke="#111" fill="#111">
<line x1="-1200" y1="0" x2="-1200" y2="-6000" stroke-width="9"/>
<line x1="-1240" y1="-40" x2="-1160" y2="40" stroke-width="18"/>
<line x1="-1240" y1="-6040" x2="-1160" y2="-5960" stroke-width="18"/>
<text x="-1260" y="-3000" text-anchor="middle" font-size="130" font-family="'IBM Plex Mono', ui-monospace, monospace" stroke="none" transform="rotate(-90 -1260 -3000)">600</text>
</g>
</g>
<g stroke="black" fill="none" stroke-width="0.35">
<circle cx="404" cy="16" r="4"/>
<path d="M 404 19 L 404 13 M 402.6 14.6 L 404 13 L 405.4 14.6" />
<text x="404" y="26" text-anchor="middle" font-size="3" stroke="none" fill="black">N</text>
</g>
<g font-size="3.2">
<line x1="10" y1="279" x2="410" y2="279" stroke="black" stroke-width="0.35"/>
<text x="10" y="285" font-weight="bold" font-size="4.2">Golden-Fluegeltyp</text>
<text x="10" y="290.5">Grundriss Kipp/Drehkipp/Schiebe · EG</text>
<text x="410" y="285" text-anchor="end">1:50 · Masse in cm/m</text>
<text x="410" y="290.5" text-anchor="end">11.07.2026 · Werkplan (SIA 51)</text>
</g>
</svg>