<svg xmlns="http://www.w3.org/2000/svg" width="420mm" height="297mm" viewBox="0 0 420 297" font-family="Helvetica, Arial, sans-serif">
<rect width="420" height="297" fill="white"/>
<g transform="translate(141.45, 164.55) scale(0.02)">
<path d="M 8045 45 L 8045 -6045 L -45 -6045 L -45 45 Z M 205 -5795 L 7795 -5795 L 7795 -205 L 205 -205 Z" fill-rule="evenodd" fill="#c9c9c9" stroke="#111" stroke-width="25"/>
<path d="M -45 45 L 8045 45 L 8205 205 L -205 205 Z" fill-rule="evenodd" fill="#efefef" stroke="#111" stroke-width="17.5"/>
<path d="M 8045 45 L 8045 -6045 L 8205 -6205 L 8205 205 Z" fill-rule="evenodd" fill="#efefef" stroke="#111" stroke-width="17.5"/>
<path d="M 8045 -6045 L -45 -6045 L -205 -6205 L 8205 -6205 Z" fill-rule="evenodd" fill="#efefef" stroke="#111" stroke-width="17.5"/>
<path d="M -45 -6045 L -45 45 L -205 205 L -205 -6205 Z" fill-rule="evenodd" fill="#efefef" stroke="#111" stroke-width="17.5"/>
<line x1="500" y1="-500" x2="4000" y2="-3000" stroke="#111" stroke-width="12.5"/>
<line x1="4000" y1="-3000" x2="7500" y2="-5500" stroke="#111" stroke-width="12.5"/>
<text x="2250" y="-1750" text-anchor="middle" font-size="110.00000000000001" font-family="'IBM Plex Mono', ui-monospace, monospace">4.301 m</text>
<text x="5750" y="-4250" text-anchor="middle" font-size="110.00000000000001" font-family="'IBM Plex Mono', ui-monospace, monospace">4.301 m</text>
<g stroke="#111" fill="#111">
<line x1="0" y1="1200" x2="8000" y2="1200" stroke-width="9"/>
<line x1="-40" y1="1240" x2="40" y2="1160" stroke-width="18"/>
<line x1="7960" y1="1240" x2="8040" y2="1160" stroke-width="18"/>
<text x="4000" y="1140" text-anchor="middle" font-size="130" font-family="'IBM Plex Mono', ui-monospace, monospace" stroke="none">800</text>
</g>
<g stroke="#111" fill="#111">
<line x1="-1200" y1="0" x2="-1200" y2="-6000" stroke-width="9"/>
<line x1="-1240" y1="-40" x2="-1160" y2="40" stroke-width="18"/>
<line x1="-1240" y1="-6040" x2="-1160" y2="-5960" stroke-width="18"/>
<text x="-1260" y="-3000" text-anchor="middle" font-size="130" font-family="'IBM Plex Mono', ui-monospace, monospace" stroke="none" transform="rotate(-90 -1260 -3000)">600</text>
</g>
</g>
<g data-teil="nordpfeil" stroke="#1A1815" fill="none" stroke-width="0.35">
<circle cx="404.00" cy="16.00" r="4"/>
<path d="M 404.00 19.00 L 404.00 13.00 M 402.60 14.60 L 404.00 13.00 L 405.40 14.60"/>
<text x="404.00" y="26.00" text-anchor="middle" font-family="'IBM Plex Mono', ui-monospace, monospace" font-size="3" font-feature-settings="'tnum'" font-weight="bold" stroke="none" fill="#1A1815">N</text>
</g>
<g data-teil="plankopf">
<rect x="230" y="232" width="180" height="55" fill="white" stroke="#1A1815" stroke-width="0.35"/>
<rect x="230" y="232" width="180" height="1.3" fill="#94704F"/>
<line x1="278" y1="233.3" x2="278" y2="287" stroke="#1A1815" stroke-width="0.25"/>
<line x1="348" y1="233.3" x2="348" y2="287" stroke="#1A1815" stroke-width="0.25"/>
<rect x="231.5" y="234.8" width="45" height="15" fill="none" stroke="#1A1815" stroke-width="0.25" stroke-dasharray="1.5 1"/>
<text x="254.00" y="243.80" text-anchor="middle" font-family="'IBM Plex Mono', ui-monospace, monospace" font-size="5.6" font-feature-settings="'tnum'" font-weight="bold" fill="#94704F">—</text>
<text x="254.00" y="248.30" text-anchor="middle" font-family="'IBM Plex Mono', ui-monospace, monospace" font-size="1.3" font-feature-settings="'tnum'" letter-spacing="0.1em">BÜRO-LOGO</text>
<text x="279.50" y="241.00" text-anchor="start" font-family="'Lato', Helvetica, Arial, sans-serif" font-size="2.4">Golden-Masskette</text>
<text x="279.50" y="284.50" text-anchor="start" font-family="'Lato', Helvetica, Arial, sans-serif" font-size="2.9">Grundriss Masskette · EG</text>
<text x="349.50" y="236.10" text-anchor="start" font-family="'IBM Plex Mono', ui-monospace, monospace" font-size="1.3" font-feature-settings="'tnum'" letter-spacing="0.1em">MASSSTAB</text>
<text x="349.50" y="239.50" text-anchor="start" font-family="'IBM Plex Mono', ui-monospace, monospace" font-size="2" font-feature-settings="'tnum'">1:50</text>
<text x="380.00" y="236.10" text-anchor="start" font-family="'IBM Plex Mono', ui-monospace, monospace" font-size="1.3" font-feature-settings="'tnum'" letter-spacing="0.1em">FORMAT</text>
<text x="380.00" y="239.50" text-anchor="start" font-family="'IBM Plex Mono', ui-monospace, monospace" font-size="2" font-feature-settings="'tnum'">A3</text>
<text x="349.50" y="241.70" text-anchor="start" font-family="'IBM Plex Mono', ui-monospace, monospace" font-size="1.3" font-feature-settings="'tnum'" letter-spacing="0.1em">PHASE</text>
<text x="349.50" y="245.10" text-anchor="start" font-family="'IBM Plex Mono', ui-monospace, monospace" font-size="2" font-feature-settings="'tnum'">VS · SIA 21</text>
<text x="380.00" y="241.70" text-anchor="start" font-family="'IBM Plex Mono', ui-monospace, monospace" font-size="1.3" font-feature-settings="'tnum'" letter-spacing="0.1em">DATUM</text>
<text x="380.00" y="245.10" text-anchor="start" font-family="'IBM Plex Mono', ui-monospace, monospace" font-size="2" font-feature-settings="'tnum'">18.07.2026</text>
<text x="349.50" y="247.30" text-anchor="start" font-family="'IBM Plex Mono', ui-monospace, monospace" font-size="1.3" font-feature-settings="'tnum'" letter-spacing="0.1em">GEZEICHNET</text>
<text x="380.00" y="247.30" text-anchor="start" font-family="'IBM Plex Mono', ui-monospace, monospace" font-size="1.3" font-feature-settings="'tnum'" letter-spacing="0.1em">GEPRÜFT</text>
<text x="349.50" y="254.10" text-anchor="start" font-family="'IBM Plex Mono', ui-monospace, monospace" font-size="1.3" font-feature-settings="'tnum'" letter-spacing="0.1em">PLAN-NR.</text>
<text x="349.50" y="258.70" text-anchor="start" font-family="'IBM Plex Mono', ui-monospace, monospace" font-size="3" font-feature-settings="'tnum'" font-weight="bold">—-—-VS-—-—-—</text>
</g>
</svg>