<svg xmlns="http://www.w3.org/2000/svg" viewBox="0 0 1123 794" font-family="Helvetica, Arial, sans-serif"><rect x="0" y="0" width="1123" height="794" fill="#ffffff"/><text x="32" y="44" font-size="22" font-weight="bold" fill="#111111">Grundlagenstudie</text><text x="32" y="64" font-size="12" fill="#444444">Ziel-GF: 6'000 m²</text><line x1="32" y1="78" x2="1091" y2="78" stroke="#bbbbbb" stroke-width="1"/><rect x="32.00" y="96" width="164.83" height="594" fill="none" stroke="#cccccc" stroke-width="1"/><text x="44.00" y="116" font-size="14" font-weight="bold" fill="#111111">Teppich</text><polygon points="162.00,244.00 162.00,126.00 44.00,126.00 44.00,244.00" fill="#e4e4e4" stroke="#333333" stroke-width="1"/><text x="170.00" y="185.00" font-size="12" fill="#333333">3 Geschosse</text><text x="44.00" y="264.00" font-size="11.5" fill="#222222">Geschosse: 3</text><text x="44.00" y="279.00" font-size="11.5" fill="#222222">Höhe: 8.4 m</text><text x="44.00" y="294.00" font-size="11.5" fill="#222222">GF: 8&#39;112 m²</text><text x="44.00" y="309.00" font-size="11.5" fill="#222222">Grenzabstand 3h (Näherung): —</text><rect x="210.83" y="96" width="164.83" height="594" fill="none" stroke="#cccccc" stroke-width="1"/><text x="222.83" y="116" font-size="14" font-weight="bold" fill="#111111">Riegel</text><polygon points="222.83,200.88 340.83,200.88 340.83,169.12 222.83,169.12" fill="#e4e4e4" stroke="#333333" stroke-width="1"/><text x="348.83" y="185.00" font-size="12" fill="#333333">9 Geschosse</text><text x="222.83" y="264.00" font-size="11.5" fill="#222222">Geschosse: 9</text><text x="222.83" y="279.00" font-size="11.5" fill="#222222">Höhe: 25.2 m</text><text x="222.83" y="294.00" font-size="11.5" fill="#222222">GF: 6&#39;552 m²</text><text x="222.83" y="309.00" font-size="11.5" fill="#222222">Grenzabstand 3h (Näherung): —</text><rect x="389.67" y="96" width="164.83" height="594" fill="none" stroke="#cccccc" stroke-width="1"/><text x="401.67" y="116" font-size="14" font-weight="bold" fill="#111111">Turm</text><polygon points="433.44,212.23 487.90,212.23 487.90,157.77 433.44,157.77" fill="#e4e4e4" stroke="#333333" stroke-width="1"/><text x="527.67" y="185.00" font-size="12" fill="#333333">10 Geschosse</text><text x="401.67" y="264.00" font-size="11.5" fill="#222222">Geschosse: 10</text><text x="401.67" y="279.00" font-size="11.5" fill="#222222">Höhe: 28 m</text><text x="401.67" y="294.00" font-size="11.5" fill="#222222">GF: 5&#39;760 m²</text><text x="401.67" y="309.00" font-size="11.5" fill="#222222">sprengt Höhe</text><text x="401.67" y="324.00" font-size="11.5" fill="#222222">Grenzabstand 3h (Näherung): —</text><rect x="568.50" y="96" width="164.83" height="594" fill="none" stroke="#cccccc" stroke-width="1"/><text x="580.50" y="116" font-size="14" font-weight="bold" fill="#111111">Zeilen</text><polygon points="580.50,244.00 698.50,244.00 698.50,212.23 580.50,212.23" fill="#e4e4e4" stroke="#333333" stroke-width="1"/><polygon points="580.50,157.77 698.50,157.77 698.50,126.00 580.50,126.00" fill="#e4e4e4" stroke="#333333" stroke-width="1"/><text x="706.50" y="185.00" font-size="12" fill="#333333">5 Geschosse</text><text x="580.50" y="264.00" font-size="11.5" fill="#222222">Geschosse: 5</text><text x="580.50" y="279.00" font-size="11.5" fill="#222222">Höhe: 14 m</text><text x="580.50" y="294.00" font-size="11.5" fill="#222222">GF: 7&#39;280 m²</text><text x="580.50" y="309.00" font-size="11.5" fill="#222222">Grenzabstand 3h (Näherung): ok (24 / 20 m)</text><rect x="747.33" y="96" width="164.83" height="594" fill="none" stroke="#cccccc" stroke-width="1"/><text x="759.33" y="116" font-size="14" font-weight="bold" fill="#111111">Winkel</text><polygon points="759.33,244.00 877.33,244.00 877.33,214.50 759.33,214.50" fill="#e4e4e4" stroke="#333333" stroke-width="1"/><polygon points="759.33,214.50 788.83,214.50 788.83,126.00 759.33,126.00" fill="#e4e4e4" stroke="#333333" stroke-width="1"/><text x="885.33" y="185.00" font-size="12" fill="#333333">6 Geschosse</text><text x="759.33" y="264.00" font-size="11.5" fill="#222222">Geschosse: 6</text><text x="759.33" y="279.00" font-size="11.5" fill="#222222">Höhe: 16.8 m</text><text x="759.33" y="294.00" font-size="11.5" fill="#222222">GF: 7&#39;098 m²</text><text x="759.33" y="309.00" font-size="11.5" fill="#222222">Tiefe</text><text x="759.33" y="324.00" font-size="11.5" fill="#222222">Grenzabstand 3h (Näherung): —</text><rect x="926.17" y="96" width="164.83" height="594" fill="none" stroke="#cccccc" stroke-width="1"/><text x="938.17" y="116" font-size="14" font-weight="bold" fill="#111111">Blockrand</text><polygon points="938.17,244.00 1056.17,244.00 1056.17,212.23 938.17,212.23" fill="#e4e4e4" stroke="#333333" stroke-width="1"/><polygon points="938.17,157.77 1056.17,157.77 1056.17,126.00 938.17,126.00" fill="#e4e4e4" stroke="#333333" stroke-width="1"/><polygon points="938.17,212.23 969.94,212.23 969.94,157.77 938.17,157.77" fill="#e4e4e4" stroke="#333333" stroke-width="1"/><polygon points="1024.40,212.23 1056.17,212.23 1056.17,157.77 1024.40,157.77" fill="#e4e4e4" stroke="#333333" stroke-width="1"/><text x="1064.17" y="185.00" font-size="12" fill="#333333">3 Geschosse</text><text x="938.17" y="264.00" font-size="11.5" fill="#222222">Geschosse: 3</text><text x="938.17" y="279.00" font-size="11.5" fill="#222222">Höhe: 8.4 m</text><text x="938.17" y="294.00" font-size="11.5" fill="#222222">GF: 6&#39;384 m²</text><text x="938.17" y="309.00" font-size="11.5" fill="#222222">Grenzabstand 3h (Näherung): ok (24 / 12 m)</text><line x1="32" y1="696" x2="1091" y2="696" stroke="#bbbbbb" stroke-width="1"/><text x="32" y="706.00" font-size="10.5" fill="#555555">Anstoss, kein Entwurf — Extremvarianten nach GF-Ziel/Zonenregel.</text></svg>