<svg xmlns="http://www.w3.org/2000/svg" width="420mm" height="297mm" viewBox="0 0 420 297" font-family="Helvetica, Arial, sans-serif">
<rect width="420" height="297" fill="white"/>
<g transform="translate(121.45, 156.55) scale(0.02)">
<path d="M 2000 -205 L 205 -205 L 205 -5795 L 9795 -5795 L 9795 -205 L 8000 -205 L 8000 45 L 10045 45 L 10045 -6045 L -45 -6045 L -45 45 L 2000 45 Z M 7000 -205 L 3000 -205 L 3000 45 L 7000 45 Z" fill-rule="evenodd" fill="#c9c9c9" stroke="#111" stroke-width="25"/>
<path d="M 10205 205 L 10045 45 L 8000 45 L 8000 205 Z M 7000 205 L 7000 45 L 3000 45 L 3000 205 Z M 2000 205 L 2000 45 L -45 45 L -205 205 Z" fill-rule="evenodd" fill="#efefef" stroke="#111" stroke-width="17.5"/>
<path d="M 10045 45 L 10045 -6045 L 10205 -6205 L 10205 205 Z" fill-rule="evenodd" fill="#efefef" stroke="#111" stroke-width="17.5"/>
<path d="M 10045 -6045 L -45 -6045 L -205 -6205 L 10205 -6205 Z" fill-rule="evenodd" fill="#efefef" stroke="#111" stroke-width="17.5"/>
<path d="M -45 -6045 L -45 45 L -205 205 L -205 -6205 Z" fill-rule="evenodd" fill="#efefef" stroke="#111" stroke-width="17.5"/>
<line x1="2000" y1="-205" x2="2000" y2="205" stroke="#111" stroke-width="12.5"/>
<line x1="3000" y1="-205" x2="3000" y2="205" stroke="#111" stroke-width="12.5"/>
<line x1="2000" y1="-205" x2="2000" y2="-1205" stroke="#111" stroke-width="12.5"/>
<line x1="7000" y1="-205" x2="7000" y2="205" stroke="#111" stroke-width="12.5"/>
<line x1="8000" y1="-205" x2="8000" y2="205" stroke="#111" stroke-width="12.5"/>
<line x1="7000" y1="-205" x2="7000" y2="-1205" stroke="#111" stroke-width="12.5"/>
<text x="2500" y="2905" text-anchor="middle" font-size="90" font-family="'IBM Plex Mono', ui-monospace, monospace">Türdrücker (Garnitur) · Türband / Scharnier · Einsteckschloss</text>
<path d="M 3000 -205 A 1000 1000 0 0 0 2000 -1205" fill="none" stroke="#666" stroke-width="9" stroke-dasharray="50 35"/>
<path d="M 8000 -205 A 1000 1000 0 0 0 7000 -1205" fill="none" stroke="#666" stroke-width="9" stroke-dasharray="50 35"/>
<g transform="translate(2080 2295)" color="#111"><circle cx="61.6" cy="110" r="26.4" fill="none" stroke="currentColor" stroke-width="11"/><line x1="61.6" y1="110" x2="180.4" y2="110" stroke="currentColor" stroke-width="17.6" stroke-linecap="round"/></g>
<g transform="translate(2390 2295)" color="#111"><rect x="26.4" y="17.6" width="44" height="184.8" rx="6.6" fill="none" stroke="currentColor" stroke-width="11"/><rect x="149.6" y="17.6" width="44" height="184.8" rx="6.6" fill="none" stroke="currentColor" stroke-width="11"/><line x1="110" y1="11" x2="110" y2="209" stroke="currentColor" stroke-width="19.8"/></g>
<g transform="translate(2700 2295)" color="#111"><rect x="44" y="33" width="66" height="154" fill="none" stroke="currentColor" stroke-width="11"/><circle cx="77" cy="110" r="13.2" fill="currentColor"/><line x1="110" y1="110" x2="171.6" y2="110" stroke="currentColor" stroke-width="15.4"/></g>
<g stroke="#111" fill="#111">
<line x1="0" y1="1200" x2="10000" y2="1200" stroke-width="9"/>
<line x1="-40" y1="1240" x2="40" y2="1160" stroke-width="18"/>
<line x1="1960" y1="1240" x2="2040" y2="1160" stroke-width="18"/>
<line x1="2960" y1="1240" x2="3040" y2="1160" stroke-width="18"/>
<line x1="6960" y1="1240" x2="7040" y2="1160" stroke-width="18"/>
<line x1="7960" y1="1240" x2="8040" y2="1160" stroke-width="18"/>
<line x1="9960" y1="1240" x2="10040" y2="1160" stroke-width="18"/>
<text x="1000" y="1140" text-anchor="middle" font-size="130" font-family="'IBM Plex Mono', ui-monospace, monospace" stroke="none">200</text>
<text x="2500" y="1140" text-anchor="middle" font-size="130" font-family="'IBM Plex Mono', ui-monospace, monospace" stroke="none">100</text>
<text x="2500" y="1310" text-anchor="middle" font-size="100" font-family="'IBM Plex Mono', ui-monospace, monospace" stroke="none">210</text>
<text x="5000" y="1140" text-anchor="middle" font-size="130" font-family="'IBM Plex Mono', ui-monospace, monospace" stroke="none">400</text>
<text x="7500" y="1140" text-anchor="middle" font-size="130" font-family="'IBM Plex Mono', ui-monospace, monospace" stroke="none">100</text>
<text x="7500" y="1310" text-anchor="middle" font-size="100" font-family="'IBM Plex Mono', ui-monospace, monospace" stroke="none">210</text>
<text x="9000" y="1140" text-anchor="middle" font-size="130" font-family="'IBM Plex Mono', ui-monospace, monospace" stroke="none">200</text>
</g>
<g stroke="#111" fill="#111">
<line x1="0" y1="2000" x2="10000" y2="2000" stroke-width="9"/>
<line x1="-40" y1="2040" x2="40" y2="1960" stroke-width="18"/>
<line x1="9960" y1="2040" x2="10040" y2="1960" stroke-width="18"/>
<text x="5000" y="1940" text-anchor="middle" font-size="130" font-family="'IBM Plex Mono', ui-monospace, monospace" stroke="none">1000</text>
</g>
<g stroke="#111" fill="#111">
<line x1="-1200" y1="0" x2="-1200" y2="-6000" stroke-width="9"/>
<line x1="-1240" y1="-40" x2="-1160" y2="40" stroke-width="18"/>
<line x1="-1240" y1="-6040" x2="-1160" y2="-5960" stroke-width="18"/>
<text x="-1260" y="-3000" text-anchor="middle" font-size="130" font-family="'IBM Plex Mono', ui-monospace, monospace" stroke="none" transform="rotate(-90 -1260 -3000)">600</text>
</g>
</g>
<g data-teil="nordpfeil" stroke="black" fill="none" stroke-width="0.35">
<circle cx="404.00" cy="16.00" r="4"/>
<path d="M 404.00 19.00 L 404.00 13.00 M 402.60 14.60 L 404.00 13.00 L 405.40 14.60"/>
<text x="404.00" y="26.00" text-anchor="middle" font-family="'IBM Plex Mono', ui-monospace, monospace" font-size="3" font-feature-settings="'tnum'" font-weight="bold" stroke="none" fill="black">N</text>
</g>
<g data-teil="plankopf">
<rect x="230" y="232" width="180" height="55" fill="white" stroke="black" stroke-width="0.35"/>
<rect x="230" y="232" width="180" height="1.3" fill="#94704F"/>
<line x1="278" y1="233.3" x2="278" y2="287" stroke="black" stroke-width="0.25"/>
<line x1="348" y1="233.3" x2="348" y2="287" stroke="black" stroke-width="0.25"/>
<rect x="231.5" y="234.8" width="45" height="15" fill="none" stroke="black" stroke-width="0.25" stroke-dasharray="1.5 1"/>
<text x="254.00" y="243.80" text-anchor="middle" font-family="'IBM Plex Mono', ui-monospace, monospace" font-size="5.6" font-feature-settings="'tnum'" font-weight="bold" fill="#94704F">—</text>
<text x="254.00" y="248.30" text-anchor="middle" font-family="'IBM Plex Mono', ui-monospace, monospace" font-size="1.3" font-feature-settings="'tnum'" letter-spacing="0.1em">BÜRO-LOGO</text>
<text x="279.50" y="241.00" text-anchor="start" font-family="'Lato', Helvetica, Arial, sans-serif" font-size="2.4">Golden-Beschlag-S2</text>
<text x="279.50" y="284.50" text-anchor="start" font-family="'Lato', Helvetica, Arial, sans-serif" font-size="2.9">Werkplan Beschlag-Katalog S2 · EG</text>
<text x="349.50" y="236.10" text-anchor="start" font-family="'IBM Plex Mono', ui-monospace, monospace" font-size="1.3" font-feature-settings="'tnum'" letter-spacing="0.1em">MASSSTAB</text>
<text x="349.50" y="239.50" text-anchor="start" font-family="'IBM Plex Mono', ui-monospace, monospace" font-size="2" font-feature-settings="'tnum'">1:50</text>
<text x="380.00" y="236.10" text-anchor="start" font-family="'IBM Plex Mono', ui-monospace, monospace" font-size="1.3" font-feature-settings="'tnum'" letter-spacing="0.1em">FORMAT</text>
<text x="380.00" y="239.50" text-anchor="start" font-family="'IBM Plex Mono', ui-monospace, monospace" font-size="2" font-feature-settings="'tnum'">A3</text>
<text x="349.50" y="241.70" text-anchor="start" font-family="'IBM Plex Mono', ui-monospace, monospace" font-size="1.3" font-feature-settings="'tnum'" letter-spacing="0.1em">PHASE</text>
<text x="349.50" y="245.10" text-anchor="start" font-family="'IBM Plex Mono', ui-monospace, monospace" font-size="2" font-feature-settings="'tnum'">VS · SIA 21</text>
<text x="380.00" y="241.70" text-anchor="start" font-family="'IBM Plex Mono', ui-monospace, monospace" font-size="1.3" font-feature-settings="'tnum'" letter-spacing="0.1em">DATUM</text>
<text x="380.00" y="245.10" text-anchor="start" font-family="'IBM Plex Mono', ui-monospace, monospace" font-size="2" font-feature-settings="'tnum'">12.07.2026</text>
<text x="349.50" y="247.30" text-anchor="start" font-family="'IBM Plex Mono', ui-monospace, monospace" font-size="1.3" font-feature-settings="'tnum'" letter-spacing="0.1em">GEZEICHNET</text>
<text x="380.00" y="247.30" text-anchor="start" font-family="'IBM Plex Mono', ui-monospace, monospace" font-size="1.3" font-feature-settings="'tnum'" letter-spacing="0.1em">GEPRÜFT</text>
<text x="349.50" y="254.10" text-anchor="start" font-family="'IBM Plex Mono', ui-monospace, monospace" font-size="1.3" font-feature-settings="'tnum'" letter-spacing="0.1em">PLAN-NR.</text>
<text x="349.50" y="258.70" text-anchor="start" font-family="'IBM Plex Mono', ui-monospace, monospace" font-size="3" font-feature-settings="'tnum'" font-weight="bold">—-—-VS-—-—-—</text>
</g>
</svg>