<svg xmlns="http://www.w3.org/2000/svg" width="1600" height="1100" viewBox="0 0 1600 1100" role="img" aria-label="IFC DXF alignment top projection preview">
  <rect width="1600" height="1100" fill="#101820"/>
  <rect x="92" y="92" width="1145" height="916" fill="#0d151b" stroke="#314b5a" stroke-width="1"/>
  <line x1="92" y1="92" x2="92" y2="1008" stroke="#233844" stroke-width="1" stroke-opacity="0.45"/>
  <line x1="321" y1="92" x2="321" y2="1008" stroke="#233844" stroke-width="1" stroke-opacity="0.45"/>
  <line x1="550" y1="92" x2="550" y2="1008" stroke="#233844" stroke-width="1" stroke-opacity="0.45"/>
  <line x1="779" y1="92" x2="779" y2="1008" stroke="#233844" stroke-width="1" stroke-opacity="0.45"/>
  <line x1="1008" y1="92" x2="1008" y2="1008" stroke="#233844" stroke-width="1" stroke-opacity="0.45"/>
  <line x1="1237" y1="92" x2="1237" y2="1008" stroke="#233844" stroke-width="1" stroke-opacity="0.45"/>
  <line x1="92" y1="1008" x2="1508" y2="1008" stroke="#233844" stroke-width="1" stroke-opacity="0.45"/>
  <line x1="92" y1="779" x2="1508" y2="779" stroke="#233844" stroke-width="1" stroke-opacity="0.45"/>
  <line x1="92" y1="550" x2="1508" y2="550" stroke="#233844" stroke-width="1" stroke-opacity="0.45"/>
  <line x1="92" y1="321" x2="1508" y2="321" stroke="#233844" stroke-width="1" stroke-opacity="0.45"/>
  <line x1="92" y1="92" x2="1508" y2="92" stroke="#233844" stroke-width="1" stroke-opacity="0.45"/>

  <rect x="92" y="92" width="1145" height="916" fill="#ff4fd8" fill-opacity="0.2" stroke="#ff8af0" stroke-width="1"/>
  <rect x="92" y="962.2" width="1145" height="45.8" fill="#ff4fd8" fill-opacity="0.2" stroke="#ff8af0" stroke-width="1"/>

  <rect x="92" y="92" width="1145" height="916" fill="none" stroke="#ff8af0" stroke-opacity="0.95" stroke-width="2.5" stroke-dasharray="9 7"/>
  <rect x="1170" y="28" width="344" height="98" rx="6" fill="#101820" fill-opacity="0.82" stroke="#314b5a"/>
  <line x1="1198" y1="60" x2="1270" y2="60" stroke="#56d9ff" stroke-width="3" stroke-opacity="0.8"/>
  <text x="1286" y="66" fill="#dce8ef" font-family="Arial, sans-serif" font-size="16">accepted DXF context</text>
  <rect x="1198" y="82" width="72" height="22" fill="#ff4fd8" fill-opacity="0.24" stroke="#ff8af0"/>
  <text x="1286" y="100" fill="#dce8ef" font-family="Arial, sans-serif" font-size="16">IFC bbox preview</text>
  <text x="92" y="38" fill="#dce8ef" font-family="Arial, sans-serif" font-size="26">IFC/DXF Alignment Preview - Top Projection</text>
  <text x="92" y="66" fill="#8fb3c6" font-family="Arial, sans-serif" font-size="15">0 DXF polylines, 2 IFC bboxes, overlap 0</text>
  <text x="92" y="1070" fill="#8fb3c6" font-family="Arial, sans-serif" font-size="15">Read-only review overlay. Not a CAD import. Not approved as design seed.</text>
</svg>
