<svg xmlns="http://www.w3.org/2000/svg" viewBox="0 0 64 64" role="img" aria-label="Architecture Cosmos">
  <rect width="64" height="64" rx="14" fill="#050505"/>
  <g fill="none" stroke-linecap="round" stroke-linejoin="round">
    <circle cx="32" cy="32" r="8.5" fill="#050505" stroke="#f7f7f4" stroke-width="1.25" opacity="0.9"/>
    <path d="M15.4 30.7c5.2-14.4 27.6-17.8 35.5-4.8 6.4 10.5-1.7 23.6-15.5 24.7-13.1 1-24.4-8.1-22.5-17.8" stroke="#f7f7f4" stroke-width="1.65"/>
    <path d="M21.2 36.8c4.8 7.8 18.6 8.5 25.1 1.6 5.9-6.3 2.5-15.4-6.5-17.3-8.3-1.8-16.5 2.5-18.6 8.6" stroke="#00e7ff" stroke-width="1.2" opacity="0.86"/>
    <path d="M19 20.4 32 32 45.2 43.8" stroke="#f5b342" stroke-width="0.9" opacity="0.78"/>
    <path d="M45.1 19.6 32 32 19.2 44.2" stroke="#ff4fd8" stroke-width="0.85" opacity="0.72"/>
    <circle cx="32" cy="32" r="2.1" fill="#f7f7f4" opacity="0.92"/>
    <circle cx="19.2" cy="20.7" r="1.4" fill="#f5b342"/>
    <circle cx="45.1" cy="19.8" r="1.35" fill="#00e7ff"/>
    <circle cx="45.2" cy="43.8" r="1.25" fill="#ff4fd8"/>
    <circle cx="18.9" cy="44.1" r="1.15" fill="#f7f7f4"/>
  </g>
</svg>
