<svg xmlns="http://www.w3.org/2000/svg" viewBox="0 0 1123 794" font-family="Helvetica, Arial, sans-serif"><rect x="0" y="0" width="1123" height="794" fill="#ffffff"/><text x="32" y="44" font-size="22" font-weight="bold" fill="#111111">Grundlagenstudie — Unbenannt</text><text x="32" y="64" font-size="12" fill="#444444">aus Zonenregel «W4 (Zürich-Altstetten)» · 8.7.2026 · Ziel-GF: 1’344 m²</text><line x1="32" y1="78" x2="1091" y2="78" stroke="#bbbbbb" stroke-width="1"/><rect x="32.00" y="96" width="343.67" height="594" fill="none" stroke="#cccccc" stroke-width="1"/><text x="44.00" y="116" font-size="14" font-weight="bold" fill="#111111">Teppich</text><polygon points="162.00,214.50 162.00,155.50 44.00,155.50 44.00,214.50" fill="#e4e4e4" stroke="#333333" stroke-width="1"/><text x="170.00" y="185.00" font-size="12" fill="#333333">3 Geschosse</text><text x="44.00" y="264.00" font-size="11.5" fill="#222222">Geschosse: 3</text><text x="44.00" y="279.00" font-size="11.5" fill="#222222">Höhe: 8.4 m</text><text x="44.00" y="294.00" font-size="11.5" fill="#222222">GF: 1’536 m²</text><text x="44.00" y="309.00" font-size="11.5" fill="#222222">Grenzabstand 3h (Näherung): —</text><text x="44.00" y="324.00" font-size="11.5" fill="#222222">Programm-Erfüllung: 256.9 %</text><rect x="389.67" y="96" width="343.67" height="594" fill="none" stroke="#cccccc" stroke-width="1"/><text x="401.67" y="116" font-size="14" font-weight="bold" fill="#111111">Riegel</text><polygon points="401.67,210.81 519.67,210.81 519.67,159.19 401.67,159.19" fill="#e4e4e4" stroke="#333333" stroke-width="1"/><text x="527.67" y="185.00" font-size="12" fill="#333333">3 Geschosse</text><text x="401.67" y="264.00" font-size="11.5" fill="#222222">Geschosse: 3</text><text x="401.67" y="279.00" font-size="11.5" fill="#222222">Höhe: 8.4 m</text><text x="401.67" y="294.00" font-size="11.5" fill="#222222">GF: 1’344 m²</text><text x="401.67" y="309.00" font-size="11.5" fill="#222222">Grenzabstand 3h (Näherung): —</text><text x="401.67" y="324.00" font-size="11.5" fill="#222222">Programm-Erfüllung: 224.8 %</text><rect x="747.33" y="96" width="343.67" height="594" fill="none" stroke="#cccccc" stroke-width="1"/><text x="759.33" y="116" font-size="14" font-weight="bold" fill="#111111">Turm</text><polygon points="788.83,214.50 847.83,214.50 847.83,155.50 788.83,155.50" fill="#e4e4e4" stroke="#333333" stroke-width="1"/><text x="885.33" y="185.00" font-size="12" fill="#333333">5 Geschosse</text><text x="759.33" y="264.00" font-size="11.5" fill="#222222">Geschosse: 5</text><text x="759.33" y="279.00" font-size="11.5" fill="#222222">Höhe: 14 m</text><text x="759.33" y="294.00" font-size="11.5" fill="#222222">GF: 1’280 m²</text><text x="759.33" y="309.00" font-size="11.5" fill="#222222">sprengt Höhe</text><text x="759.33" y="324.00" font-size="11.5" fill="#222222">Grenzabstand 3h (Näherung): —</text><text x="759.33" y="339.00" font-size="11.5" fill="#222222">Programm-Erfüllung: 214.1 %</text><line x1="32" y1="696" x2="1091" y2="696" stroke="#bbbbbb" stroke-width="1"/><text x="32" y="706.00" font-size="10.5" fill="#555555">Gesamt-GF-Vergleich — keine Raumtypen-Zuordnung (Studie)</text><text x="32" y="720.00" font-size="10.5" fill="#555555">Anstoss, kein Entwurf — Extremvarianten nach GF-Ziel/Zonenregel.</text></svg>