<svg xmlns="http://www.w3.org/2000/svg" viewBox="0 0 1400 980" width="1400" height="980">
<style>
.bg{fill:#050505}.line{fill:none;stroke:#f7f7f4;stroke-width:3;stroke-linecap:round;stroke-linejoin:round}.thin{fill:none;stroke:#8d8d87;stroke-width:1.3;stroke-linecap:round;stroke-linejoin:round}.grid{fill:none;stroke:#2f3435;stroke-width:1}.accent{fill:none;stroke:#00e7ff;stroke-width:3;stroke-linecap:round;stroke-linejoin:round}.dash{fill:none;stroke:#00e7ff;stroke-width:2;stroke-dasharray:10 12;opacity:.72}.txt{fill:#f7f7f4;font:24px Helvetica,Arial,sans-serif;letter-spacing:2px}.small{fill:#b8b8b2;font:15px Helvetica,Arial,sans-serif;letter-spacing:1.1px}.label{fill:#00e7ff;font:15px Helvetica,Arial,sans-serif;letter-spacing:1.4px}.zone{fill:#00e7ff;opacity:.08;stroke:#00e7ff;stroke-width:2}.pale{fill:#f7f7f4;opacity:.08;stroke:#f7f7f4;stroke-width:1.5}.col{fill:#f7f7f4;opacity:.78}.ramp{fill:#00e7ff;opacity:.12;stroke:#00e7ff;stroke-width:3}.car{fill:none;stroke:#8d8d87;stroke-width:2;stroke-dasharray:8 10}.note{fill:#808987;font:12px Helvetica,Arial,sans-serif;letter-spacing:1px}
</style>
<rect class="bg" width="100%" height="100%"/>
<text x="90" y="82" class="txt">VILLA SAVOYE / LONG SECTION</text><text x="90" y="114" class="small">pilotis, suspended volume, ramp, roof garden and promenade architecturale</text><text x="90" y="900" class="note">Diagrammatic reconstruction for Architecture Cosmos. Not a measured construction drawing. Source basis: official sources + public architectural knowledge; rights-safe vector study layer.</text>
<path class="grid" d="M160 170 V820"/>
<path class="grid" d="M250 170 V820"/>
<path class="grid" d="M340 170 V820"/>
<path class="grid" d="M430 170 V820"/>
<path class="grid" d="M520 170 V820"/>
<path class="grid" d="M610 170 V820"/>
<path class="grid" d="M700 170 V820"/>
<path class="grid" d="M790 170 V820"/>
<path class="grid" d="M880 170 V820"/>
<path class="grid" d="M970 170 V820"/>
<path class="grid" d="M1060 170 V820"/>
<path class="grid" d="M1150 170 V820"/>
<path class="grid" d="M1240 170 V820"/>
<path class="grid" d="M140 190 H1260"/>
<path class="grid" d="M140 260 H1260"/>
<path class="grid" d="M140 330 H1260"/>
<path class="grid" d="M140 400 H1260"/>
<path class="grid" d="M140 470 H1260"/>
<path class="grid" d="M140 540 H1260"/>
<path class="grid" d="M140 610 H1260"/>
<path class="grid" d="M140 680 H1260"/>
<path class="grid" d="M140 750 H1260"/>
<path class="grid" d="M140 820 H1260"/>

<path class="line" d="M210 680 H1160"/><path class="line" d="M305 315 H1030 V595 H305 Z"/>
<path class="thin" d="M305 455 H1030"/>
<path class="line" d="M360 595 V680"/><path class="line" d="M470 595 V680"/><path class="line" d="M580 595 V680"/><path class="line" d="M690 595 V680"/><path class="line" d="M800 595 V680"/><path class="line" d="M910 595 V680"/><path class="line" d="M1020 595 V680"/>
<path class="ramp" d="M405 625 L835 330 L875 350 L445 645 Z"/><text x="640" y="493" class="label" transform="rotate(-34 640 493)">RAMP / PROMENADE</text>
<rect x="340" y="340" width="260" height="90" class="zone"/><text x="390" y="393" class="label">LIVING LEVEL</text>
<rect x="720" y="270" width="240" height="60" class="pale"/><text x="750" y="307" class="small">ROOF GARDEN</text>
<path class="accent" d="M290 315 H1045"/><text x="310" y="280" class="label">SUSPENDED WHITE VOLUME</text>
<text x="360" y="725" class="small">PILOTIS / FREE GROUND</text>

</svg>