<svg xmlns="http://www.w3.org/2000/svg" width="420mm" height="297mm" viewBox="0 0 420 297" font-family="Helvetica, Arial, sans-serif">
<rect width="420" height="297" fill="white"/>
<g transform="translate(166.50, 150.63) scale(0.01)">
<path d="M 5875 0 L 5875 -2000 L 6125 -2000 L 6125 0 Z" fill-rule="evenodd" fill="#f3e29b" stroke="#8a7500" stroke-width="50" stroke-dasharray="300 150"/>
<path d="M 3740 125 L 3740 -4125 L -125 -4125 L -125 -2600 L 125 -2600 L 125 -3875 L 3490 -3875 L 3490 -125 L 125 -125 L 125 -1400 L -125 -1400 L -125 125 Z" fill-rule="evenodd" fill="#c9c9c9" stroke="#111" stroke-width="50"/>
<path d="M 9000 0 L 11000 0 L 11000 -2000 L 9000 -2000 Z" fill-rule="evenodd" fill="none" stroke="#666" stroke-width="18" stroke-dasharray="200 100"/>
<line x1="125" y1="-2600" x2="-125" y2="-2600" stroke="#111" stroke-width="25"/>
<line x1="125" y1="-1400" x2="-125" y2="-1400" stroke="#111" stroke-width="25"/>
<line x1="-25" y1="-2600" x2="-25" y2="-1400" stroke="#111" stroke-width="18"/>
<line x1="25" y1="-2600" x2="25" y2="-1400" stroke="#111" stroke-width="18"/>
<line x1="125" y1="-2560" x2="25" y2="-2560" stroke="#111" stroke-width="25"/>
<line x1="125" y1="-1440" x2="25" y2="-1440" stroke="#111" stroke-width="25"/>
<g stroke="#111" fill="#111">
<line x1="0" y1="1200" x2="3615" y2="1200" stroke-width="18"/>
<line x1="-80" y1="1280" x2="80" y2="1120" stroke-width="36"/>
<line x1="3535" y1="1280" x2="3695" y2="1120" stroke-width="36"/>
<text x="1807.5" y="1080" text-anchor="middle" font-size="260" font-family="'IBM Plex Mono', ui-monospace, monospace" stroke="none">361<tspan dy="-85.800" font-size="182.000">5</tspan></text>
</g>
<g stroke="#111" fill="#111">
<line x1="-1200" y1="0" x2="-1200" y2="-4000" stroke-width="18"/>
<line x1="-1280" y1="-80" x2="-1120" y2="80" stroke-width="36"/>
<line x1="-1280" y1="-1480" x2="-1120" y2="-1320" stroke-width="36"/>
<line x1="-1280" y1="-2680" x2="-1120" y2="-2520" stroke-width="36"/>
<line x1="-1280" y1="-4080" x2="-1120" y2="-3920" stroke-width="36"/>
<text x="-1320" y="-700" text-anchor="middle" font-size="260" font-family="'IBM Plex Mono', ui-monospace, monospace" stroke="none" transform="rotate(-90 -1320 -700)">140</text>
<text x="-1320" y="-2000" text-anchor="middle" font-size="260" font-family="'IBM Plex Mono', ui-monospace, monospace" stroke="none" transform="rotate(-90 -1320 -2000)">120</text>
<text x="-980" y="-2000" text-anchor="middle" font-size="200" font-family="'IBM Plex Mono', ui-monospace, monospace" stroke="none" transform="rotate(-90 -980 -2000)">150<tspan dy="-66.000" font-size="140.000">5</tspan><tspan dy="66.000" font-size="200">/90</tspan></text>
<text x="-1320" y="-3300" text-anchor="middle" font-size="260" font-family="'IBM Plex Mono', ui-monospace, monospace" stroke="none" transform="rotate(-90 -1320 -3300)">140</text>
</g>
<g stroke="#111" fill="#111">
<line x1="-2000" y1="0" x2="-2000" y2="-4000" stroke-width="18"/>
<line x1="-2080" y1="-80" x2="-1920" y2="80" stroke-width="36"/>
<line x1="-2080" y1="-4080" x2="-1920" y2="-3920" stroke-width="36"/>
<text x="-2120" y="-2000" text-anchor="middle" font-size="260" font-family="'IBM Plex Mono', ui-monospace, monospace" stroke="none" transform="rotate(-90 -2120 -2000)">400</text>
</g>
</g>
<g stroke="black" fill="none" stroke-width="0.35">
<circle cx="404" cy="16" r="4"/>
<path d="M 404 19 L 404 13 M 402.6 14.6 L 404 13 L 405.4 14.6" />
<text x="404" y="26" text-anchor="middle" font-size="3" font-family="'Lato', Helvetica, Arial, sans-serif" stroke="none" fill="black">N</text>
</g>
<g font-size="3.2">
<line x1="10" y1="279" x2="410" y2="279" stroke="black" stroke-width="0.35"/>
<text x="10" y="285" font-weight="bold" font-family="'Lato', Helvetica, Arial, sans-serif" letter-spacing="0.04em" font-size="4.2">KRITIK 074</text>
<text x="10" y="290.5" font-family="'Lato', Helvetica, Arial, sans-serif">Nachweis-Fixtur Welle 1 · EG</text>
<text x="410" y="285" text-anchor="end" font-family="'IBM Plex Mono', ui-monospace, monospace" font-feature-settings="'tnum'">1:100 · Masse in cm/m</text>
<text x="410" y="290.5" text-anchor="end" font-family="'IBM Plex Mono', ui-monospace, monospace" font-feature-settings="'tnum'">12.07.2026 · Werkplan (SIA 51)</text>
</g>
</svg>